<svg xmlns="http://www.w3.org/2000/svg" xmlns:xlink="http://www.w3.org/1999/xlink" width="1025" zoomAndPan="magnify" viewBox="0 0 768.75 577.499988" height="770" preserveAspectRatio="xMidYMid meet" version="1.0"><defs><clipPath id="id1"><path d="M 0.207031 57 L 768.292969 57 L 768.292969 459 L 0.207031 459 Z M 0.207031 57 " clip-rule="nonzero"/></clipPath><clipPath id="id2"><path d="M 0.207031 429 L 768.292969 429 L 768.292969 496 L 0.207031 496 Z M 0.207031 429 " clip-rule="nonzero"/></clipPath><clipPath id="id3"><path d="M 0.207031 449 L 768.292969 449 L 768.292969 469 L 0.207031 469 Z M 0.207031 449 " clip-rule="nonzero"/></clipPath><clipPath id="id4"><path d="M 0.207031 463 L 768.292969 463 L 768.292969 577 L 0.207031 577 Z M 0.207031 463 " clip-rule="nonzero"/></clipPath><clipPath id="id5"><path d="M 0.207031 463 L 768.292969 463 L 768.292969 488 L 0.207031 488 Z M 0.207031 463 " clip-rule="nonzero"/></clipPath><clipPath id="id6"><path d="M 0.207031 522 L 204 522 L 204 536 L 0.207031 536 Z M 0.207031 522 " clip-rule="nonzero"/></clipPath><clipPath id="id7"><path d="M 639 522 L 768.292969 522 L 768.292969 536 L 639 536 Z M 639 522 " clip-rule="nonzero"/></clipPath><clipPath id="id8"><path d="M 417.46875 512.070312 L 528.675781 512.070312 L 528.675781 533.601562 L 417.46875 533.601562 Z M 417.46875 512.070312 " clip-rule="nonzero"/></clipPath></defs><g clip-path="url(#id1)"><path fill="#bae49b" d="M 699.347656 299.335938 L 699.347656 201.871094 L 710.1875 201.871094 L 710.1875 174.785156 L 560.285156 174.785156 L 560.285156 201.871094 L 571.121094 201.871094 L 571.121094 245.203125 L 486.234375 245.203125 L 486.234375 93.539062 L 465.464844 93.539062 L 465.464844 57.421875 L 322.792969 57.421875 L 322.792969 93.539062 L 302.023438 93.539062 L 302.023438 242.460938 L 206.300781 284.058594 L 206.300781 120.621094 L 150.316406 80.898438 L 94.328125 120.621094 L 94.328125 256.039062 L 0.402344 256.039062 L 0.402344 458.261719 L 768.3125 458.261719 L 768.3125 300.398438 L 699.347656 299.335938 " fill-opacity="1" fill-rule="nonzero"/></g><path fill="#ffffff" d="M 188.304688 189.117188 L 192.097656 189.117188 L 192.097656 137.476562 L 188.304688 137.476562 L 188.304688 189.117188 " fill-opacity="1" fill-rule="nonzero"/><path fill="#ffffff" d="M 177.84375 189.117188 L 181.632812 189.117188 L 181.632812 137.476562 L 177.84375 137.476562 L 177.84375 189.117188 " fill-opacity="1" fill-rule="nonzero"/><path fill="#ffffff" d="M 167.378906 189.117188 L 171.164062 189.117188 L 171.164062 137.476562 L 167.378906 137.476562 L 167.378906 189.117188 " fill-opacity="1" fill-rule="nonzero"/><path fill="#ffffff" d="M 156.914062 189.117188 L 160.703125 189.117188 L 160.703125 137.476562 L 156.914062 137.476562 L 156.914062 189.117188 " fill-opacity="1" fill-rule="nonzero"/><path fill="#ffffff" d="M 146.445312 189.117188 L 150.238281 189.117188 L 150.238281 137.476562 L 146.445312 137.476562 L 146.445312 189.117188 " fill-opacity="1" fill-rule="nonzero"/><path fill="#ffffff" d="M 135.988281 189.117188 L 139.773438 189.117188 L 139.773438 137.476562 L 135.988281 137.476562 L 135.988281 189.117188 " fill-opacity="1" fill-rule="nonzero"/><path fill="#ffffff" d="M 125.519531 189.117188 L 129.308594 189.117188 L 129.308594 137.476562 L 125.519531 137.476562 L 125.519531 189.117188 " fill-opacity="1" fill-rule="nonzero"/><path fill="#ffffff" d="M 115.058594 189.117188 L 118.84375 189.117188 L 118.84375 137.476562 L 115.058594 137.476562 L 115.058594 189.117188 " fill-opacity="1" fill-rule="nonzero"/><path fill="#ffffff" d="M 104.59375 189.117188 L 108.382812 189.117188 L 108.382812 137.476562 L 104.59375 137.476562 L 104.59375 189.117188 " fill-opacity="1" fill-rule="nonzero"/><path fill="#ffffff" d="M 188.304688 253.679688 L 192.097656 253.679688 L 192.097656 202.035156 L 188.304688 202.035156 L 188.304688 253.679688 " fill-opacity="1" fill-rule="nonzero"/><path fill="#ffffff" d="M 177.84375 253.679688 L 181.632812 253.679688 L 181.632812 202.035156 L 177.84375 202.035156 L 177.84375 253.679688 " fill-opacity="1" fill-rule="nonzero"/><path fill="#ffffff" d="M 167.378906 253.679688 L 171.164062 253.679688 L 171.164062 202.035156 L 167.378906 202.035156 L 167.378906 253.679688 " fill-opacity="1" fill-rule="nonzero"/><path fill="#ffffff" d="M 156.914062 253.679688 L 160.703125 253.679688 L 160.703125 202.035156 L 156.914062 202.035156 L 156.914062 253.679688 " fill-opacity="1" fill-rule="nonzero"/><path fill="#ffffff" d="M 146.445312 253.679688 L 150.238281 253.679688 L 150.238281 202.035156 L 146.445312 202.035156 L 146.445312 253.679688 " fill-opacity="1" fill-rule="nonzero"/><path fill="#ffffff" d="M 135.988281 253.679688 L 139.773438 253.679688 L 139.773438 202.035156 L 135.988281 202.035156 L 135.988281 253.679688 " fill-opacity="1" fill-rule="nonzero"/><path fill="#ffffff" d="M 125.519531 253.679688 L 129.308594 253.679688 L 129.308594 202.035156 L 125.519531 202.035156 L 125.519531 253.679688 " fill-opacity="1" fill-rule="nonzero"/><path fill="#ffffff" d="M 115.058594 253.679688 L 118.84375 253.679688 L 118.84375 202.035156 L 115.058594 202.035156 L 115.058594 253.679688 " fill-opacity="1" fill-rule="nonzero"/><path fill="#ffffff" d="M 104.59375 253.679688 L 108.382812 253.679688 L 108.382812 202.035156 L 104.59375 202.035156 L 104.59375 253.679688 " fill-opacity="1" fill-rule="nonzero"/><path fill="#ffffff" d="M 188.304688 318.246094 L 192.097656 318.246094 L 192.097656 266.601562 L 188.304688 266.601562 L 188.304688 318.246094 " fill-opacity="1" fill-rule="nonzero"/><path fill="#ffffff" d="M 177.84375 318.246094 L 181.632812 318.246094 L 181.632812 266.601562 L 177.84375 266.601562 L 177.84375 318.246094 " fill-opacity="1" fill-rule="nonzero"/><path fill="#ffffff" d="M 167.378906 318.246094 L 171.164062 318.246094 L 171.164062 266.601562 L 167.378906 266.601562 L 167.378906 318.246094 " fill-opacity="1" fill-rule="nonzero"/><path fill="#ffffff" d="M 156.914062 318.246094 L 160.703125 318.246094 L 160.703125 266.601562 L 156.914062 266.601562 L 156.914062 318.246094 " fill-opacity="1" fill-rule="nonzero"/><path fill="#ffffff" d="M 146.445312 318.246094 L 150.238281 318.246094 L 150.238281 266.601562 L 146.445312 266.601562 L 146.445312 318.246094 " fill-opacity="1" fill-rule="nonzero"/><path fill="#ffffff" d="M 135.988281 318.246094 L 139.773438 318.246094 L 139.773438 266.601562 L 135.988281 266.601562 L 135.988281 318.246094 " fill-opacity="1" fill-rule="nonzero"/><path fill="#ffffff" d="M 125.519531 318.246094 L 129.308594 318.246094 L 129.308594 266.601562 L 125.519531 266.601562 L 125.519531 318.246094 " fill-opacity="1" fill-rule="nonzero"/><path fill="#ffffff" d="M 115.058594 318.246094 L 118.84375 318.246094 L 118.84375 266.601562 L 115.058594 266.601562 L 115.058594 318.246094 " fill-opacity="1" fill-rule="nonzero"/><path fill="#ffffff" d="M 104.59375 318.246094 L 108.382812 318.246094 L 108.382812 266.601562 L 104.59375 266.601562 L 104.59375 318.246094 " fill-opacity="1" fill-rule="nonzero"/><path fill="#ffffff" d="M 188.304688 382.804688 L 192.097656 382.804688 L 192.097656 331.164062 L 188.304688 331.164062 L 188.304688 382.804688 " fill-opacity="1" fill-rule="nonzero"/><path fill="#ffffff" d="M 177.84375 382.804688 L 181.632812 382.804688 L 181.632812 331.164062 L 177.84375 331.164062 L 177.84375 382.804688 " fill-opacity="1" fill-rule="nonzero"/><path fill="#ffffff" d="M 167.378906 382.804688 L 171.164062 382.804688 L 171.164062 331.164062 L 167.378906 331.164062 L 167.378906 382.804688 " fill-opacity="1" fill-rule="nonzero"/><path fill="#ffffff" d="M 156.914062 382.804688 L 160.703125 382.804688 L 160.703125 331.164062 L 156.914062 331.164062 L 156.914062 382.804688 " fill-opacity="1" fill-rule="nonzero"/><path fill="#ffffff" d="M 146.445312 382.804688 L 150.238281 382.804688 L 150.238281 331.164062 L 146.445312 331.164062 L 146.445312 382.804688 " fill-opacity="1" fill-rule="nonzero"/><path fill="#ffffff" d="M 135.988281 382.804688 L 139.773438 382.804688 L 139.773438 331.164062 L 135.988281 331.164062 L 135.988281 382.804688 " fill-opacity="1" fill-rule="nonzero"/><path fill="#ffffff" d="M 125.519531 382.804688 L 129.308594 382.804688 L 129.308594 331.164062 L 125.519531 331.164062 L 125.519531 382.804688 " fill-opacity="1" fill-rule="nonzero"/><path fill="#ffffff" d="M 115.058594 382.804688 L 118.84375 382.804688 L 118.84375 331.164062 L 115.058594 331.164062 L 115.058594 382.804688 " fill-opacity="1" fill-rule="nonzero"/><path fill="#ffffff" d="M 104.59375 382.804688 L 108.382812 382.804688 L 108.382812 331.164062 L 104.59375 331.164062 L 104.59375 382.804688 " fill-opacity="1" fill-rule="nonzero"/><path fill="#ffffff" d="M 655.457031 209.804688 L 589.1875 209.804688 L 589.1875 201.050781 L 655.457031 201.050781 L 655.457031 209.804688 " fill-opacity="1" fill-rule="nonzero"/><path fill="#ffffff" d="M 655.457031 226.882812 L 589.1875 226.882812 L 589.1875 218.136719 L 655.457031 218.136719 L 655.457031 226.882812 " fill-opacity="1" fill-rule="nonzero"/><path fill="#ffffff" d="M 655.457031 243.96875 L 589.1875 243.96875 L 589.1875 235.214844 L 655.457031 235.214844 L 655.457031 243.96875 " fill-opacity="1" fill-rule="nonzero"/><path fill="#ffffff" d="M 655.457031 261.046875 L 589.1875 261.046875 L 589.1875 252.296875 L 655.457031 252.296875 L 655.457031 261.046875 " fill-opacity="1" fill-rule="nonzero"/><path fill="#ffffff" d="M 655.457031 278.128906 L 589.1875 278.128906 L 589.1875 269.378906 L 655.457031 269.378906 L 655.457031 278.128906 " fill-opacity="1" fill-rule="nonzero"/><path fill="#ffffff" d="M 655.457031 295.210938 L 589.1875 295.210938 L 589.1875 286.460938 L 655.457031 286.460938 L 655.457031 295.210938 " fill-opacity="1" fill-rule="nonzero"/><path fill="#ffffff" d="M 655.457031 312.292969 L 589.1875 312.292969 L 589.1875 303.542969 L 655.457031 303.542969 L 655.457031 312.292969 " fill-opacity="1" fill-rule="nonzero"/><path fill="#ffffff" d="M 655.457031 329.371094 L 589.1875 329.371094 L 589.1875 320.625 L 655.457031 320.625 L 655.457031 329.371094 " fill-opacity="1" fill-rule="nonzero"/><path fill="#ffffff" d="M 655.457031 346.457031 L 589.1875 346.457031 L 589.1875 337.703125 L 655.457031 337.703125 L 655.457031 346.457031 " fill-opacity="1" fill-rule="nonzero"/><path fill="#ffffff" d="M 655.457031 363.535156 L 589.1875 363.535156 L 589.1875 354.789062 L 655.457031 354.789062 L 655.457031 363.535156 " fill-opacity="1" fill-rule="nonzero"/><path fill="#ffffff" d="M 655.457031 380.621094 L 589.1875 380.621094 L 589.1875 371.867188 L 655.457031 371.867188 L 655.457031 380.621094 " fill-opacity="1" fill-rule="nonzero"/><path fill="#ffffff" d="M 655.457031 397.695312 L 589.1875 397.695312 L 589.1875 388.949219 L 655.457031 388.949219 L 655.457031 397.695312 " fill-opacity="1" fill-rule="nonzero"/><path fill="#ffffff" d="M 577.460938 270.355469 L 486.832031 270.355469 L 486.832031 261.417969 L 577.460938 261.417969 L 577.460938 270.355469 " fill-opacity="1" fill-rule="nonzero"/><path fill="#ffffff" d="M 577.460938 289.847656 L 486.832031 289.847656 L 486.832031 280.910156 L 577.460938 280.910156 L 577.460938 289.847656 " fill-opacity="1" fill-rule="nonzero"/><path fill="#ffffff" d="M 577.460938 309.335938 L 486.832031 309.335938 L 486.832031 300.398438 L 577.460938 300.398438 L 577.460938 309.335938 " fill-opacity="1" fill-rule="nonzero"/><path fill="#ffffff" d="M 577.460938 328.828125 L 486.832031 328.828125 L 486.832031 319.886719 L 577.460938 319.886719 L 577.460938 328.828125 " fill-opacity="1" fill-rule="nonzero"/><path fill="#ffffff" d="M 577.460938 348.316406 L 486.832031 348.316406 L 486.832031 339.378906 L 577.460938 339.378906 L 577.460938 348.316406 " fill-opacity="1" fill-rule="nonzero"/><path fill="#ffffff" d="M 577.460938 367.808594 L 486.832031 367.808594 L 486.832031 358.871094 L 577.460938 358.871094 L 577.460938 367.808594 " fill-opacity="1" fill-rule="nonzero"/><path fill="#ffffff" d="M 577.460938 387.300781 L 486.832031 387.300781 L 486.832031 378.355469 L 577.460938 378.355469 L 577.460938 387.300781 " fill-opacity="1" fill-rule="nonzero"/><path fill="#ffffff" d="M 343.554688 148.953125 L 323.089844 148.953125 L 323.089844 120.191406 L 343.554688 120.191406 L 343.554688 148.953125 " fill-opacity="1" fill-rule="nonzero"/><path fill="#ffffff" d="M 343.554688 196.085938 L 323.089844 196.085938 L 323.089844 167.324219 L 343.554688 167.324219 L 343.554688 196.085938 " fill-opacity="1" fill-rule="nonzero"/><path fill="#ffffff" d="M 343.554688 243.21875 L 323.089844 243.21875 L 323.089844 214.457031 L 343.554688 214.457031 L 343.554688 243.21875 " fill-opacity="1" fill-rule="nonzero"/><path fill="#ffffff" d="M 343.554688 290.351562 L 323.089844 290.351562 L 323.089844 261.59375 L 343.554688 261.59375 L 343.554688 290.351562 " fill-opacity="1" fill-rule="nonzero"/><path fill="#ffffff" d="M 343.554688 337.484375 L 323.089844 337.484375 L 323.089844 308.722656 L 343.554688 308.722656 L 343.554688 337.484375 " fill-opacity="1" fill-rule="nonzero"/><path fill="#ffffff" d="M 343.554688 384.621094 L 323.089844 384.621094 L 323.089844 355.855469 L 343.554688 355.855469 L 343.554688 384.621094 " fill-opacity="1" fill-rule="nonzero"/><path fill="#ffffff" d="M 384.363281 148.898438 L 363.894531 148.898438 L 363.894531 120.128906 L 384.363281 120.128906 L 384.363281 148.898438 " fill-opacity="1" fill-rule="nonzero"/><path fill="#ffffff" d="M 384.363281 196.027344 L 363.894531 196.027344 L 363.894531 167.265625 L 384.363281 167.265625 L 384.363281 196.027344 " fill-opacity="1" fill-rule="nonzero"/><path fill="#ffffff" d="M 384.363281 243.164062 L 363.894531 243.164062 L 363.894531 214.402344 L 384.363281 214.402344 L 384.363281 243.164062 " fill-opacity="1" fill-rule="nonzero"/><path fill="#ffffff" d="M 384.363281 290.296875 L 363.894531 290.296875 L 363.894531 261.53125 L 384.363281 261.53125 L 384.363281 290.296875 " fill-opacity="1" fill-rule="nonzero"/><path fill="#ffffff" d="M 384.363281 337.429688 L 363.894531 337.429688 L 363.894531 308.667969 L 384.363281 308.667969 L 384.363281 337.429688 " fill-opacity="1" fill-rule="nonzero"/><path fill="#ffffff" d="M 384.363281 384.5625 L 363.894531 384.5625 L 363.894531 355.800781 L 384.363281 355.800781 L 384.363281 384.5625 " fill-opacity="1" fill-rule="nonzero"/><path fill="#ffffff" d="M 425.167969 148.835938 L 404.695312 148.835938 L 404.695312 120.074219 L 425.167969 120.074219 L 425.167969 148.835938 " fill-opacity="1" fill-rule="nonzero"/><path fill="#ffffff" d="M 425.167969 195.972656 L 404.695312 195.972656 L 404.695312 167.207031 L 425.167969 167.207031 L 425.167969 195.972656 " fill-opacity="1" fill-rule="nonzero"/><path fill="#ffffff" d="M 425.167969 243.105469 L 404.695312 243.105469 L 404.695312 214.34375 L 425.167969 214.34375 L 425.167969 243.105469 " fill-opacity="1" fill-rule="nonzero"/><path fill="#ffffff" d="M 425.167969 290.238281 L 404.695312 290.238281 L 404.695312 261.476562 L 425.167969 261.476562 L 425.167969 290.238281 " fill-opacity="1" fill-rule="nonzero"/><path fill="#ffffff" d="M 425.167969 337.367188 L 404.695312 337.367188 L 404.695312 308.609375 L 425.167969 308.609375 L 425.167969 337.367188 " fill-opacity="1" fill-rule="nonzero"/><path fill="#ffffff" d="M 425.167969 384.503906 L 404.695312 384.503906 L 404.695312 355.742188 L 425.167969 355.742188 L 425.167969 384.503906 " fill-opacity="1" fill-rule="nonzero"/><path fill="#ffffff" d="M 465.96875 148.78125 L 445.496094 148.78125 L 445.496094 120.015625 L 465.96875 120.015625 L 465.96875 148.78125 " fill-opacity="1" fill-rule="nonzero"/><path fill="#ffffff" d="M 465.96875 195.914062 L 445.496094 195.914062 L 445.496094 167.152344 L 465.96875 167.152344 L 465.96875 195.914062 " fill-opacity="1" fill-rule="nonzero"/><path fill="#ffffff" d="M 465.96875 243.050781 L 445.496094 243.050781 L 445.496094 214.28125 L 465.96875 214.28125 L 465.96875 243.050781 " fill-opacity="1" fill-rule="nonzero"/><path fill="#ffffff" d="M 465.96875 290.179688 L 445.496094 290.179688 L 445.496094 261.417969 L 465.96875 261.417969 L 465.96875 290.179688 " fill-opacity="1" fill-rule="nonzero"/><path fill="#ffffff" d="M 465.96875 337.316406 L 445.496094 337.316406 L 445.496094 308.550781 L 465.96875 308.550781 L 465.96875 337.316406 " fill-opacity="1" fill-rule="nonzero"/><path fill="#ffffff" d="M 465.96875 384.445312 L 445.496094 384.445312 L 445.496094 355.683594 L 465.96875 355.683594 L 465.96875 384.445312 " fill-opacity="1" fill-rule="nonzero"/><path fill="#a68432" d="M 639.042969 -16.320312 C 639.042969 -16.320312 620.199219 -7.457031 620.199219 25.867188 C 620.199219 25.867188 616.023438 46.152344 602.894531 56.296875 C 589.765625 66.441406 578.171875 79.480469 591.207031 95.417969 C 604.253906 111.363281 597.015625 120.011719 591.207031 130.898438 C 585.414062 141.789062 572.378906 162.074219 578.171875 177.285156 C 583.964844 192.503906 598.453125 204.09375 597.011719 217.132812 C 595.5625 230.175781 571.097656 260.816406 602.894531 273.753906 C 602.894531 273.753906 633.242188 277.992188 640.496094 291.035156 C 647.742188 304.074219 668.019531 305.523438 688.324219 291.035156 C 708.613281 276.542969 712.960938 273.644531 727.453125 266.398438 C 741.949219 259.15625 750.640625 234.523438 740.5 204.09375 C 740.5 204.09375 728.90625 180.910156 734.703125 156.277344 C 740.5 131.644531 741.222656 107.738281 728.179688 92.523438 C 728.179688 92.523438 712.960938 78.03125 715.863281 51.945312 C 718.757812 25.867188 711.519531 20.070312 695.570312 11.378906 C 695.570312 11.378906 679.625 4.128906 675.277344 -11.808594 C 675.277344 -11.808594 660.804688 -34.988281 639.042969 -16.320312 " fill-opacity="1" fill-rule="nonzero"/><path fill="#8a2f67" d="M 667.824219 434.445312 L 645.085938 434.445312 L 655.617188 -16.914062 L 657.292969 -16.914062 L 667.824219 434.445312 " fill-opacity="1" fill-rule="nonzero"/><path fill="#8a2f67" d="M 595.191406 152.863281 L 650.570312 180.003906 L 651.527344 178.050781 L 596.148438 150.914062 " fill-opacity="1" fill-rule="nonzero"/><path fill="#8a2f67" d="M 608.570312 215.929688 L 650.628906 233.316406 L 651.457031 231.304688 L 609.40625 213.917969 " fill-opacity="1" fill-rule="nonzero"/><path fill="#8a2f67" d="M 657.046875 158.578125 L 716.109375 120.199219 L 714.925781 118.375 L 655.863281 156.757812 " fill-opacity="1" fill-rule="nonzero"/><path fill="#8a2f67" d="M 657 209.707031 L 708.453125 179.96875 L 707.363281 178.085938 L 655.910156 207.824219 " fill-opacity="1" fill-rule="nonzero"/><path fill="#8a2f67" d="M 657.011719 260.414062 L 703.027344 233.242188 L 701.921875 231.371094 L 655.910156 258.542969 " fill-opacity="1" fill-rule="nonzero"/><path fill="#8a2f67" d="M 657.09375 118.410156 L 623.988281 94.5 L 622.722656 96.261719 L 655.820312 120.167969 " fill-opacity="1" fill-rule="nonzero"/><path fill="#8a2f67" d="M 657.144531 79.921875 L 686.671875 56.015625 L 685.300781 54.328125 L 655.773438 78.234375 " fill-opacity="1" fill-rule="nonzero"/><path fill="#8a2f67" d="M 657.265625 32.71875 L 640.71875 14.238281 L 639.09375 15.683594 L 655.644531 34.164062 " fill-opacity="1" fill-rule="nonzero"/><path fill="#b3944d" d="M 485.792969 54.648438 C 485.792969 54.648438 469.976562 62.074219 469.976562 90.0625 C 469.976562 90.0625 466.464844 107.085938 455.445312 115.605469 C 444.421875 124.117188 434.6875 135.070312 445.640625 148.453125 C 456.59375 161.832031 450.503906 169.097656 445.640625 178.234375 C 440.769531 187.378906 429.820312 204.410156 434.6875 217.179688 C 439.554688 229.953125 451.714844 239.6875 450.503906 250.636719 C 449.285156 261.582031 428.75 287.308594 455.445312 298.167969 C 455.445312 298.167969 480.925781 301.726562 487.007812 312.675781 C 493.097656 323.621094 510.128906 324.839844 527.167969 312.675781 C 544.199219 300.511719 547.847656 298.078125 560.019531 291.996094 C 572.183594 285.914062 579.480469 265.234375 570.972656 239.6875 C 570.972656 239.6875 561.238281 220.222656 566.101562 199.542969 C 570.972656 178.859375 571.574219 158.785156 560.621094 146.011719 C 560.621094 146.011719 547.851562 133.855469 550.28125 111.953125 C 552.710938 90.0625 546.636719 85.191406 533.246094 77.894531 C 533.246094 77.894531 519.863281 71.8125 516.210938 58.429688 C 516.210938 58.429688 504.054688 38.96875 485.792969 54.648438 " fill-opacity="1" fill-rule="nonzero"/><path fill="#8a2f67" d="M 509.957031 433.074219 L 490.875 433.074219 L 499.710938 54.136719 L 501.117188 54.136719 L 509.957031 433.074219 " fill-opacity="1" fill-rule="nonzero"/><path fill="#8a2f67" d="M 448.980469 196.679688 L 495.472656 219.460938 L 496.273438 217.824219 L 449.785156 195.042969 " fill-opacity="1" fill-rule="nonzero"/><path fill="#8a2f67" d="M 460.210938 249.621094 L 495.523438 264.21875 L 496.21875 262.53125 L 460.90625 247.933594 " fill-opacity="1" fill-rule="nonzero"/><path fill="#8a2f67" d="M 500.910156 201.472656 L 550.492188 169.253906 L 549.496094 167.722656 L 499.914062 199.945312 " fill-opacity="1" fill-rule="nonzero"/><path fill="#8a2f67" d="M 500.867188 244.398438 L 544.066406 219.429688 L 543.148438 217.847656 L 499.953125 242.816406 " fill-opacity="1" fill-rule="nonzero"/><path fill="#8a2f67" d="M 500.875 286.96875 L 539.515625 264.15625 L 538.585938 262.585938 L 499.949219 285.398438 " fill-opacity="1" fill-rule="nonzero"/><path fill="#8a2f67" d="M 500.945312 167.75 L 473.15625 147.675781 L 472.085938 149.15625 L 499.875 169.226562 " fill-opacity="1" fill-rule="nonzero"/><path fill="#8a2f67" d="M 500.984375 135.441406 L 525.785156 115.363281 L 524.632812 113.949219 L 499.835938 134.023438 " fill-opacity="1" fill-rule="nonzero"/><path fill="#8a2f67" d="M 501.09375 95.804688 L 487.195312 80.296875 L 485.839844 81.511719 L 499.730469 97.019531 " fill-opacity="1" fill-rule="nonzero"/><path fill="#b39650" d="M 47.535156 435.996094 C 47.535156 435.996094 45.726562 395.367188 97.199219 398.980469 C 97.199219 398.980469 93.585938 369.1875 138.738281 367.382812 C 138.738281 367.382812 144.15625 320.4375 199.238281 328.5625 C 199.238281 328.5625 211.882812 301.480469 244.386719 303.285156 C 244.386719 303.285156 289.539062 303.199219 295.863281 338.492188 C 295.863281 338.492188 347.332031 327.660156 363.585938 361.0625 C 363.585938 361.0625 412.351562 348.421875 434.023438 385.4375 C 434.023438 385.4375 470.144531 370.089844 487.300781 404.394531 C 487.300781 404.394531 528.839844 395.367188 547.804688 435.996094 L 47.535156 435.996094 " fill-opacity="1" fill-rule="nonzero"/><path fill="#a88d3c" d="M 443.953125 417.9375 C 429.507812 391.757812 401.515625 406.203125 401.515625 406.203125 C 384.359375 369.59375 348.238281 389.050781 348.238281 389.050781 C 338.300781 352.035156 292.25 369.59375 292.25 369.59375 C 289.539062 338.492188 249.808594 331.113281 249.808594 331.113281 C 227.230469 328.25 212.785156 347.523438 212.785156 347.523438 C 200.265625 331.496094 180.527344 329.921875 165.425781 331.695312 C 141.714844 341.816406 138.738281 367.382812 138.738281 367.382812 C 93.585938 369.1875 97.199219 398.980469 97.199219 398.980469 C 45.726562 395.367188 47.535156 435.996094 47.535156 435.996094 L 209.398438 435.996094 L 470.144531 429.675781 C 471.046875 416.132812 443.953125 417.9375 443.953125 417.9375 " fill-opacity="1" fill-rule="nonzero"/><g clip-path="url(#id2)"><path fill="#88997c" d="M 768.316406 495.589844 L 0.402344 495.589844 L 0.402344 429.675781 L 768.316406 429.675781 L 768.316406 495.589844 " fill-opacity="1" fill-rule="nonzero"/></g><g clip-path="url(#id3)"><path fill="#6f8067" d="M 768.316406 468.859375 L 0.402344 468.859375 L 0.402344 449.59375 L 768.316406 449.59375 L 768.316406 468.859375 " fill-opacity="1" fill-rule="nonzero"/></g><g clip-path="url(#id4)"><path fill="#a4ba9b" d="M 768.316406 593.910156 L 0.402344 593.910156 L 0.402344 463.816406 L 768.316406 463.816406 L 768.316406 593.910156 " fill-opacity="1" fill-rule="nonzero"/></g><g clip-path="url(#id5)"><path fill="#8fa185" d="M 768.316406 487.6875 L 768.316406 463.816406 L 0.402344 463.816406 L 0.402344 487.6875 L 768.316406 487.6875 " fill-opacity="1" fill-rule="nonzero"/></g><g clip-path="url(#id6)"><path fill="#ffffff" d="M 203.019531 535.070312 L 0.402344 535.070312 L 0.402344 522.832031 L 203.019531 522.832031 L 203.019531 535.070312 " fill-opacity="1" fill-rule="nonzero"/></g><path fill="#ffffff" d="M 320.066406 535.070312 L 522.691406 535.070312 L 522.691406 522.832031 L 320.066406 522.832031 Z M 320.066406 535.070312 " fill-opacity="1" fill-rule="nonzero"/><g clip-path="url(#id7)"><path fill="#ffffff" d="M 768.316406 535.066406 L 639.730469 535.066406 L 639.730469 522.832031 L 768.316406 522.832031 L 768.316406 535.066406 " fill-opacity="1" fill-rule="nonzero"/></g><path fill="#e07c5c" d="M 240.027344 418.433594 C 245.328125 416.296875 250.167969 414.179688 250.167969 414.179688 C 256.078125 408.410156 262.5 399.058594 262.5 399.058594 C 266.929688 395.472656 270.847656 396.9375 271.835938 399.179688 C 274.789062 405.878906 269.054688 409.324219 266.648438 411.476562 C 264.230469 413.632812 255.136719 418.878906 252.109375 420.964844 C 249.085938 423.050781 249.28125 422.566406 246.808594 422.902344 C 245.902344 423.03125 243.148438 423.488281 240.027344 424.015625 L 240.027344 418.433594 " fill-opacity="1" fill-rule="nonzero"/><path fill="#4e649f" d="M 267.273438 437.820312 L 272.46875 433.828125 C 274.375 434.984375 275.910156 436.363281 277.148438 437.820312 L 267.273438 437.820312 " fill-opacity="1" fill-rule="nonzero"/><path fill="#bd2723" d="M 240.296875 418.875 C 240.296875 418.875 240.128906 427.1875 241.46875 426.769531 C 242.804688 426.347656 247.679688 425.433594 250.78125 422.558594 C 253.886719 419.679688 269.863281 398.589844 266.671875 392.074219 C 264 386.609375 261.109375 387.804688 257.519531 392.367188 C 253.378906 397.636719 245.265625 415.117188 245.265625 415.117188 C 245.265625 415.117188 240.246094 417.597656 240.296875 418.875 " fill-opacity="1" fill-rule="nonzero"/><path fill="#f59572" d="M 255.433594 392.5 C 255.433594 392.5 257.359375 389.097656 256.933594 381.671875 C 256.898438 380.964844 258.742188 379.496094 258.742188 379.496094 L 263.359375 375.050781 L 264.886719 386.820312 L 264.632812 389.890625 C 264.632812 389.890625 257.476562 396.996094 255.433594 392.5 " fill-opacity="1" fill-rule="nonzero"/><path fill="#f03c31" d="M 279.191406 437.820312 L 256.285156 437.820312 C 256.234375 436.960938 256.167969 436.035156 256.070312 435.050781 C 255.421875 428.355469 253.703125 418.96875 253.824219 411.398438 C 253.824219 411.398438 248.816406 408.355469 248.816406 403.902344 C 248.816406 402.023438 252.382812 398.625 253.824219 395.878906 C 254.648438 394.324219 254.386719 392.167969 254.386719 392.167969 C 254.832031 391.351562 255.773438 391.789062 255.773438 391.789062 C 258.941406 395.363281 264.421875 384.945312 264.421875 384.945312 C 275.335938 392.972656 277.492188 399.457031 275.1875 417.246094 C 274.199219 424.863281 276.898438 432.761719 279.191406 437.820312 " fill-opacity="1" fill-rule="nonzero"/><path fill="#df342d" d="M 267.550781 400.238281 L 266.828125 400.238281 L 267.097656 399.695312 C 267.097656 399.695312 267.28125 399.851562 267.550781 400.238281 " fill-opacity="1" fill-rule="nonzero"/><path fill="#f9ab89" d="M 240.027344 423.195312 C 243.671875 421.035156 246.449219 419.292969 246.449219 419.292969 C 250.054688 411.863281 256.589844 397.007812 256.589844 397.007812 C 259.527344 392.128906 263.714844 392.171875 265.410156 393.949219 C 270.460938 399.242188 266.246094 404.429688 264.710938 407.277344 C 263.175781 410.121094 256.410156 418.152344 254.273438 421.144531 C 252.140625 424.132812 250.9375 425.019531 248.734375 426.183594 C 247.796875 426.679688 244.042969 428.03125 240.027344 429.429688 L 240.027344 423.195312 " fill-opacity="1" fill-rule="nonzero"/><path fill="#f03c31" d="M 241.96875 422.039062 C 241.96875 422.039062 241.800781 430.355469 243.144531 429.933594 C 244.476562 429.511719 249.351562 428.601562 252.453125 425.722656 C 255.558594 422.84375 271.535156 401.757812 268.347656 395.238281 C 265.671875 389.773438 260.507812 390.121094 256.914062 394.683594 C 252.773438 399.953125 246.9375 418.285156 246.9375 418.285156 C 246.9375 418.285156 241.917969 420.761719 241.96875 422.039062 " fill-opacity="1" fill-rule="nonzero"/><path fill="#f9ab89" d="M 250.652344 385.796875 C 254.648438 386.113281 259.84375 383.699219 259.84375 383.699219 C 261.371094 382.84375 262.335938 376.382812 262.335938 376.382812 C 264.632812 372.726562 268.273438 375.363281 268.273438 368.722656 C 268.277344 360.105469 254.554688 358.105469 249.898438 363.652344 C 248.496094 365.316406 248.121094 369.222656 248.121094 373.027344 C 247.9375 373.519531 247.527344 373.796875 246.089844 375.910156 C 246.089844 375.910156 245.523438 376.523438 246.207031 377.113281 C 246.742188 377.578125 247.550781 377.765625 247.550781 377.765625 C 248.121094 378.289062 249.898438 385.734375 250.652344 385.796875 " fill-opacity="1" fill-rule="nonzero"/><path fill="#501d17" d="M 263.46875 375.910156 C 263.898438 374.632812 263.847656 373.871094 263.847656 373.871094 C 263.847656 373.871094 265.539062 372.789062 261.632812 373.027344 C 257.070312 373.308594 254.785156 366.484375 254.785156 366.484375 C 254.785156 366.484375 249.046875 367.699219 248.546875 366.539062 C 248.054688 365.378906 248.316406 364.058594 249.125 362.816406 C 252.089844 358.265625 259.097656 357.941406 262.011719 358.148438 C 264.929688 358.351562 265.417969 359.734375 265.417969 359.734375 C 271.15625 360.546875 270.21875 370.910156 270.21875 370.910156 C 270.085938 373.347656 270.640625 374.675781 271.917969 376.914062 C 271.917969 376.914062 277.984375 390.746094 270.402344 392.851562 C 270.402344 392.851562 268.746094 395.5 265.851562 393.566406 C 265.851562 393.566406 263.5625 395.140625 260.164062 393.234375 C 260.164062 393.234375 265.199219 388.507812 263.207031 381.511719 C 261.804688 376.566406 263.46875 375.910156 263.46875 375.910156 " fill-opacity="1" fill-rule="nonzero"/><path fill="#5f262c" d="M 249.886719 368.605469 C 249.886719 368.605469 249.253906 368.6875 249.574219 369.117188 C 249.894531 369.546875 251.839844 368.664062 253.347656 369.914062 C 253.347656 369.914062 252.148438 368.164062 249.886719 368.605469 " fill-opacity="1" fill-rule="nonzero"/><path fill="#161a20" d="M 250.128906 371.277344 C 250.128906 371.277344 251.386719 372.046875 251.753906 372.242188 C 251.753906 372.242188 250.148438 373.160156 249.804688 373.335938 C 249.804688 373.335938 249.78125 373.203125 249.9375 373.03125 C 249.9375 373.03125 249.9375 372.261719 250.191406 371.730469 C 250.191406 371.730469 249.460938 371.171875 249.484375 370.910156 L 250.128906 371.277344 " fill-opacity="1" fill-rule="nonzero"/><path fill="#f9ab89" d="M 260.613281 372.449219 C 260.613281 372.449219 262.285156 369.03125 263.929688 369.773438 C 266.371094 370.871094 264.273438 378.621094 261.804688 376.566406 C 259.332031 374.507812 260.613281 372.449219 260.613281 372.449219 " fill-opacity="1" fill-rule="nonzero"/><path fill="#ee8b67" d="M 263.953125 370.78125 C 263.953125 370.78125 265.039062 371.828125 263.847656 373.871094 C 263.847656 373.871094 263.46875 374.625 263.359375 375.050781 C 263.242188 375.480469 263.003906 375.878906 262.578125 375.910156 C 262.144531 375.945312 262.425781 374.894531 262.644531 374.660156 C 262.867188 374.417969 262.933594 374.050781 262.644531 373.960938 C 262.363281 373.878906 261.90625 373.691406 262.035156 373.113281 C 262.164062 372.535156 262.980469 370.265625 263.953125 370.78125 " fill-opacity="1" fill-rule="nonzero"/><path fill="#f25a53" d="M 248.519531 380.332031 C 249.136719 380.269531 250.886719 379.980469 251.914062 378.578125 C 251.988281 378.484375 251.96875 378.355469 251.875 378.289062 C 251.785156 378.21875 251.652344 378.238281 251.585938 378.328125 C 250.605469 379.664062 248.839844 379.886719 248.394531 379.921875 C 248.4375 380.058594 248.476562 380.191406 248.519531 380.332031 " fill-opacity="1" fill-rule="nonzero"/><path fill="#14191e" d="M 284.910156 362.3125 C 284.910156 362.3125 277.558594 363.136719 275.207031 367.1875 C 272.855469 371.246094 271.679688 378.960938 273.328125 381.332031 C 273.328125 381.332031 268.199219 394.425781 269.519531 400.238281 C 270.835938 406.042969 281.707031 402.714844 281.707031 402.714844 L 284.910156 362.3125 " fill-opacity="1" fill-rule="nonzero"/><path fill="#14191e" d="M 217.847656 400.242188 C 217.847656 400.796875 218.480469 401.242188 219.257812 401.242188 C 220.039062 401.242188 220.667969 400.796875 220.667969 400.242188 L 220.667969 380.035156 C 220.667969 379.476562 220.039062 379.03125 219.257812 379.03125 C 218.480469 379.03125 217.847656 379.476562 217.847656 380.035156 L 217.847656 400.242188 " fill-opacity="1" fill-rule="nonzero"/><path fill="#f9ab89" d="M 229.425781 398.679688 C 229.425781 398.679688 224.417969 393.125 223.246094 391.1875 C 223.246094 391.1875 222.082031 387.605469 221.847656 387.335938 C 221.527344 386.984375 220.667969 386.839844 220.667969 387.75 C 220.667969 388.046875 216.847656 388.222656 216.730469 388.691406 C 216.617188 389.160156 216.4375 389.761719 217.148438 390.140625 C 217.148438 390.140625 216.820312 390.746094 217.148438 391.25 C 217.148438 391.25 216.90625 391.863281 217.378906 392.304688 C 217.378906 392.304688 217.316406 393.128906 217.585938 393.390625 C 217.847656 393.65625 220.40625 394.949219 220.847656 395.007812 C 221.289062 395.070312 221.992188 395.070312 222.167969 394.828125 L 225.074219 398.972656 L 229.425781 398.679688 " fill-opacity="1" fill-rule="nonzero"/><path fill="#14191e" d="M 210.859375 374.769531 L 217.148438 405.507812 L 199.585938 399.601562 L 200.21875 387.222656 L 210.859375 374.769531 " fill-opacity="1" fill-rule="nonzero"/><path fill="#2e4356" d="M 380.835938 351.757812 L 383.285156 401.8125 L 362.585938 415.480469 L 290.550781 403.929688 L 299.042969 346.644531 L 380.835938 351.757812 " fill-opacity="1" fill-rule="nonzero"/><path fill="#415d72" d="M 362.953125 350.636719 L 300.390625 405.507812 L 290.550781 403.929688 L 291.054688 400.527344 L 348.9375 349.765625 L 362.953125 350.636719 " fill-opacity="1" fill-rule="nonzero"/><path fill="#415d72" d="M 343.929688 349.449219 L 291.859375 395.125 L 293.253906 385.703125 L 335.207031 348.90625 L 343.929688 349.449219 " fill-opacity="1" fill-rule="nonzero"/><path fill="#415d72" d="M 306.894531 406.550781 L 370.125 351.089844 L 377.839844 351.566406 L 378.308594 352.105469 L 314.796875 407.816406 L 306.894531 406.550781 " fill-opacity="1" fill-rule="nonzero"/><path fill="#23405f" d="M 297.949219 398.609375 L 303.167969 352.125 C 303.167969 352.125 311.898438 351.476562 323.40625 351.882812 L 333.800781 352.523438 C 339.199219 353.011719 344.796875 353.785156 350.136719 354.972656 C 357.457031 356.59375 373.386719 390.542969 373.386719 390.542969 L 367.21875 398.609375 Z M 287.097656 407.804688 L 350.257812 418.734375 L 385.871094 409.332031 L 385.871094 384.660156 L 356.113281 345.777344 L 322.066406 343.925781 L 322.585938 347.039062 L 300.898438 345.777344 L 295.265625 348.421875 L 288.226562 391.984375 L 287.097656 407.804688 " fill-opacity="1" fill-rule="nonzero"/><path fill="#23405f" d="M 283.703125 353.585938 L 274.863281 397.894531 L 209.984375 397.960938 L 204.863281 390.195312 C 204.863281 390.195312 222.742188 357.847656 230.964844 356.296875 C 236.953125 355.167969 243.242188 354.4375 249.308594 353.96875 L 260.972656 353.355469 C 273.902344 352.972656 283.703125 353.585938 283.703125 353.585938 Z M 290.902344 405.339844 L 290.902344 349.390625 L 286.25 347.539062 L 261.894531 348.742188 L 262.304688 346.644531 L 249.117188 346.644531 L 249.117188 349.816406 L 222.195312 349.816406 L 199.585938 374.894531 L 199.585938 405.339844 L 290.902344 405.339844 " fill-opacity="1" fill-rule="nonzero"/><path fill="#2e4356" d="M 123.414062 413.800781 C 123.414062 413.800781 115.1875 415.445312 114.484375 420.378906 C 113.777344 425.3125 109.074219 447.089844 114.484375 451.246094 C 119.890625 455.398438 124.832031 449.285156 124.832031 449.285156 L 123.414062 413.800781 " fill-opacity="1" fill-rule="nonzero"/><path fill="#14191e" d="M 129.761719 480.378906 L 393.597656 480.378906 L 393.597656 422.109375 L 129.761719 422.109375 Z M 129.761719 480.378906 " fill-opacity="1" fill-rule="nonzero"/><path fill="#2e4356" d="M 393.597656 351.757812 C 393.597656 351.757812 413.183594 385.597656 412.949219 404.398438 L 396.808594 406.042969 L 374.234375 354.117188 L 393.597656 351.757812 " fill-opacity="1" fill-rule="nonzero"/><path fill="#415d72" d="M 404.160156 372.835938 L 389.472656 389.179688 L 384.960938 378.796875 L 399.566406 363.023438 C 401.019531 365.949219 402.605469 369.289062 404.160156 372.835938 " fill-opacity="1" fill-rule="nonzero"/><path fill="#415d72" d="M 408.761719 384.433594 L 393.597656 398.664062 L 391.636719 394.15625 L 406.484375 378.371094 C 407.289062 380.371094 408.050781 382.398438 408.761719 384.433594 " fill-opacity="1" fill-rule="nonzero"/><path fill="#ef332b" d="M 199.65625 391.25 C 199.65625 391.25 219.527344 356.578125 227.6875 354.765625 C 251.488281 349.480469 289.035156 348.421875 289.035156 348.421875 L 277.402344 400.238281 L 206.53125 400.238281 L 199.65625 391.25 M 293.617188 401.292969 L 299.441406 349.480469 C 299.441406 349.480469 327.996094 347.363281 351.792969 352.648438 C 359.957031 354.464844 377.710938 392.304688 377.710938 392.304688 L 370.835938 401.292969 L 293.617188 401.292969 M 109.3125 449.355469 L 109.3125 466.988281 C 109.3125 483.90625 138.9375 484.605469 138.9375 484.605469 L 143.164062 484.605469 L 143.164062 450.773438 C 143.164062 446.875 146.644531 443.71875 150.945312 443.71875 L 203.078125 443.71875 C 207.378906 443.71875 210.863281 446.875 210.863281 450.773438 L 210.863281 484.605469 L 312.414062 484.605469 L 312.414062 450.773438 C 312.414062 446.875 315.898438 443.71875 320.195312 443.71875 L 372.332031 443.71875 C 376.625 443.71875 380.113281 446.875 380.113281 450.773438 L 380.113281 484.605469 L 394.917969 484.605469 C 417.488281 484.605469 421.011719 472.625 421.011719 472.625 L 421.011719 448.65625 L 414.605469 437.316406 L 412.796875 401.292969 L 400.101562 401.292969 C 400.101562 401.292969 383.707031 360.582031 382.648438 357.410156 C 381.933594 355.257812 390.191406 354.082031 395.597656 353.542969 L 393.511719 347.761719 C 296.898438 330.132812 218.972656 350.171875 218.972656 350.171875 L 188.652344 388.59375 L 182.304688 398.992188 C 182.304688 398.992188 124.832031 409.570312 119.183594 413.097656 C 113.542969 416.621094 117.070312 416.925781 117.070312 416.925781 L 117.777344 444.773438 L 109.3125 449.355469 " fill-opacity="1" fill-rule="nonzero"/><path fill="#2a353f" d="M 312.765625 480.378906 C 312.765625 498.679688 327.605469 513.519531 345.90625 513.519531 C 364.214844 513.519531 379.054688 498.679688 379.054688 480.378906 C 379.054688 462.078125 364.214844 447.242188 345.90625 447.242188 C 327.605469 447.242188 312.765625 462.078125 312.765625 480.378906 " fill-opacity="1" fill-rule="nonzero"/><path fill="#1b2229" d="M 345.90625 505.6875 C 362.890625 505.6875 376.886719 492.925781 378.824219 476.464844 C 378.976562 477.75 379.054688 479.058594 379.054688 480.378906 C 379.054688 498.679688 364.214844 513.519531 345.90625 513.519531 C 327.605469 513.519531 312.765625 498.679688 312.765625 480.378906 C 312.765625 479.058594 312.84375 477.75 312.996094 476.464844 C 314.933594 492.925781 328.929688 505.6875 345.90625 505.6875 " fill-opacity="1" fill-rule="nonzero"/><path fill="#bdc8d3" d="M 325.53125 480.378906 C 325.53125 491.632812 334.65625 500.753906 345.90625 500.753906 C 357.164062 500.753906 366.289062 491.632812 366.289062 480.378906 C 366.289062 469.128906 357.164062 460.007812 345.90625 460.007812 C 334.65625 460.007812 325.53125 469.128906 325.53125 480.378906 " fill-opacity="1" fill-rule="nonzero"/><path fill="#92a2b4" d="M 329.230469 480.378906 C 329.230469 489.589844 336.699219 497.050781 345.90625 497.050781 C 355.117188 497.050781 362.585938 489.589844 362.585938 480.378906 C 362.585938 471.171875 355.117188 463.710938 345.90625 463.710938 C 336.699219 463.710938 329.230469 471.171875 329.230469 480.378906 " fill-opacity="1" fill-rule="nonzero"/><path fill="#6c8599" d="M 362.5625 479.546875 C 362.574219 479.824219 362.585938 480.101562 362.585938 480.378906 C 362.585938 489.589844 355.117188 497.050781 345.90625 497.050781 C 336.699219 497.050781 329.230469 489.589844 329.230469 480.378906 C 329.230469 480.101562 329.242188 479.824219 329.253906 479.546875 L 362.5625 479.546875 " fill-opacity="1" fill-rule="nonzero"/><path fill="#2a353f" d="M 143.867188 480.378906 C 143.867188 498.679688 158.707031 513.519531 177.011719 513.519531 C 195.316406 513.519531 210.160156 498.679688 210.160156 480.378906 C 210.160156 462.078125 195.316406 447.242188 177.011719 447.242188 C 158.707031 447.242188 143.867188 462.078125 143.867188 480.378906 " fill-opacity="1" fill-rule="nonzero"/><path fill="#1b2229" d="M 177.011719 505.6875 C 193.992188 505.6875 207.988281 492.925781 209.925781 476.464844 C 210.078125 477.75 210.160156 479.058594 210.160156 480.378906 C 210.160156 498.679688 195.316406 513.519531 177.011719 513.519531 C 158.707031 513.519531 143.867188 498.679688 143.867188 480.378906 C 143.867188 479.058594 143.945312 477.75 144.101562 476.464844 C 146.039062 492.925781 160.03125 505.6875 177.011719 505.6875 " fill-opacity="1" fill-rule="nonzero"/><path fill="#bdc8d3" d="M 156.632812 480.378906 C 156.632812 491.632812 165.757812 500.753906 177.011719 500.753906 C 188.265625 500.753906 197.390625 491.632812 197.390625 480.378906 C 197.390625 469.128906 188.265625 460.007812 177.011719 460.007812 C 165.757812 460.007812 156.632812 469.128906 156.632812 480.378906 " fill-opacity="1" fill-rule="nonzero"/><path fill="#92a2b4" d="M 160.335938 480.378906 C 160.335938 489.589844 167.804688 497.050781 177.011719 497.050781 C 186.222656 497.050781 193.691406 489.589844 193.691406 480.378906 C 193.691406 471.171875 186.222656 463.710938 177.011719 463.710938 C 167.804688 463.710938 160.335938 471.171875 160.335938 480.378906 " fill-opacity="1" fill-rule="nonzero"/><path fill="#6c8599" d="M 193.667969 479.546875 C 193.679688 479.824219 193.691406 480.101562 193.691406 480.378906 C 193.691406 489.589844 186.222656 497.050781 177.011719 497.050781 C 167.804688 497.050781 160.335938 489.589844 160.335938 480.378906 C 160.335938 480.101562 160.34375 479.824219 160.359375 479.546875 L 193.667969 479.546875 " fill-opacity="1" fill-rule="nonzero"/><path fill="#f14c56" d="M 119.183594 413.097656 C 124.832031 409.570312 182.304688 398.992188 182.304688 398.992188 L 188.652344 388.59375 L 205.265625 367.539062 C 198.769531 380.757812 184.351562 404.769531 183.828125 406.15625 C 183.828125 406.15625 124.828125 414.269531 121.535156 416.851562 C 118.246094 419.4375 117.777344 444.773438 117.777344 444.773438 L 117.070312 416.925781 C 117.070312 416.925781 113.542969 416.621094 119.183594 413.097656 " fill-opacity="1" fill-rule="nonzero"/><path fill="#2e4356" d="M 116.480469 417.925781 L 149.21875 416.972656 C 149.21875 416.972656 152.332031 420.496094 150.800781 424.609375 C 149.277344 428.722656 134.703125 438.121094 114.015625 438.355469 L 112.839844 436.59375 L 116.480469 417.925781 " fill-opacity="1" fill-rule="nonzero"/><path fill="#f14c56" d="M 218.28125 351.042969 L 218.972656 350.171875 C 218.972656 350.171875 296.898438 330.132812 393.511719 347.761719 L 394.570312 350.699219 C 374.972656 347.175781 304.820312 336.855469 218.28125 351.042969 " fill-opacity="1" fill-rule="nonzero"/><path fill="#f14c56" d="M 296.191406 406.042969 C 296.191406 406.042969 290.695312 407.472656 293.617188 401.292969 L 370.835938 401.292969 L 377.710938 392.304688 C 377.710938 392.304688 363.292969 361.574219 354.472656 354.175781 L 362.128906 357.75 C 362.128906 357.75 388.578125 391.945312 388.578125 400.402344 L 379.054688 407.804688 L 296.191406 406.042969 " fill-opacity="1" fill-rule="nonzero"/><path fill="#f14c56" d="M 199.898438 391.5625 L 206.53125 400.238281 L 277.402344 400.238281 L 289.035156 348.421875 L 292.761719 348.421875 L 281.035156 406.042969 L 205.21875 406.042969 C 205.21875 406.042969 195.195312 399.121094 199.898438 391.5625 " fill-opacity="1" fill-rule="nonzero"/><path fill="#d92424" d="M 394.917969 484.605469 L 380.113281 484.605469 L 380.113281 455.398438 L 421.011719 455.398438 L 421.011719 472.625 C 421.011719 472.625 417.488281 484.605469 394.917969 484.605469 " fill-opacity="1" fill-rule="nonzero"/><path fill="#d92424" d="M 210.863281 484.605469 L 312.414062 484.605469 L 312.414062 455.398438 L 210.863281 455.398438 Z M 210.863281 484.605469 " fill-opacity="1" fill-rule="nonzero"/><path fill="#d92424" d="M 143.164062 455.398438 L 143.164062 484.605469 L 138.9375 484.605469 C 138.9375 484.605469 109.3125 483.90625 109.3125 466.988281 L 109.3125 455.398438 L 143.164062 455.398438 " fill-opacity="1" fill-rule="nonzero"/><path fill="#a81c22" d="M 414.203125 429.3125 L 393.988281 429.3125 C 392.042969 429.3125 389.875 427.832031 389.167969 426.027344 L 386.101562 418.191406 C 385.398438 416.386719 386.398438 414.90625 388.339844 414.90625 L 413.476562 414.90625 L 414.203125 429.3125 " fill-opacity="1" fill-rule="nonzero"/><path fill="#f9a925" d="M 413.839844 422.109375 L 414.203125 429.3125 L 393.988281 429.3125 C 392.042969 429.3125 389.875 427.832031 389.167969 426.027344 L 387.628906 422.109375 L 413.839844 422.109375 " fill-opacity="1" fill-rule="nonzero"/><path fill="#f14c56" d="M 309.125 450.800781 C 309.125 452.421875 304.175781 453.746094 298.128906 453.746094 L 227.03125 453.746094 C 220.984375 453.746094 216.035156 452.417969 216.035156 450.800781 C 216.035156 449.183594 218.65625 445.964844 221.855469 443.644531 C 225.050781 441.316406 232.617188 439.417969 238.667969 439.417969 L 285.820312 439.417969 C 291.867188 439.417969 299.585938 441.316406 302.96875 443.644531 C 306.351562 445.964844 309.125 449.183594 309.125 450.800781 " fill-opacity="1" fill-rule="nonzero"/><path fill="#cb2124" d="M 309.382812 484.605469 L 306.722656 484.605469 L 306.722656 484.148438 L 309.382812 484.148438 L 309.382812 484.605469 M 289.085938 484.605469 L 210.863281 484.605469 L 210.863281 466.675781 L 289.085938 466.675781 L 289.085938 484.605469 " fill-opacity="1" fill-rule="nonzero"/><path fill="#cb2124" d="M 143.164062 484.605469 L 138.9375 484.605469 C 138.9375 484.605469 109.3125 483.90625 109.3125 466.988281 L 109.3125 466.675781 L 143.164062 466.675781 L 143.164062 484.605469 " fill-opacity="1" fill-rule="nonzero"/><path fill="#9a1a20" d="M 284.910156 484.605469 L 284.910156 412.503906 L 296.5 340.761719 C 296.980469 340.742188 297.457031 340.726562 297.9375 340.710938 L 286.320312 412.613281 L 286.320312 484.605469 L 284.910156 484.605469 " fill-opacity="1" fill-rule="nonzero"/><path fill="#f46942" d="M 131.820312 418.5625 C 131.820312 418.5625 129.707031 433.542969 130.585938 434.066406 C 131.46875 434.597656 148.566406 427.371094 149.097656 423.488281 C 149.625 419.617188 148.214844 418.5625 148.214844 418.5625 L 131.820312 418.5625 " fill-opacity="1" fill-rule="nonzero"/><path fill="#e0f2fa" d="M 129.761719 418.96875 C 129.761719 418.96875 129.058594 432.246094 127.648438 434.835938 C 127.097656 435.851562 114.601562 436.59375 114.601562 436.59375 L 116.601562 418.96875 L 129.761719 418.96875 " fill-opacity="1" fill-rule="nonzero"/><path fill="#9a1a20" d="M 297.398438 343.351562 C 297.394531 343.351562 283.386719 344.027344 266.996094 345.46875 C 258.800781 346.191406 250.007812 347.101562 242.066406 348.21875 C 234.125 349.335938 227.039062 350.648438 222.21875 352.195312 L 222.058594 352.246094 L 221.957031 352.382812 C 221.957031 352.382812 215.78125 360.671875 208.960938 370.460938 C 205.546875 375.355469 201.972656 380.625 198.925781 385.425781 C 195.875 390.234375 193.359375 394.554688 192.039062 397.609375 L 191.996094 397.707031 L 191.996094 443.71875 L 193.054688 443.71875 L 193.054688 397.816406 L 192.527344 397.816406 L 193.011719 398.027344 C 194.277344 395.085938 196.785156 390.773438 199.820312 385.996094 C 204.371094 378.824219 210.121094 370.574219 214.730469 364.121094 C 217.035156 360.894531 219.054688 358.117188 220.496094 356.148438 C 221.21875 355.160156 221.796875 354.378906 222.195312 353.84375 C 222.589844 353.304688 222.804688 353.015625 222.804688 353.015625 L 222.382812 352.699219 L 222.542969 353.203125 C 227.246094 351.691406 234.300781 350.375 242.214844 349.265625 C 254.085938 347.601562 267.898438 346.382812 278.738281 345.582031 C 284.160156 345.183594 288.839844 344.890625 292.164062 344.695312 C 293.824219 344.597656 295.144531 344.527344 296.050781 344.476562 C 296.960938 344.429688 297.449219 344.40625 297.449219 344.40625 L 297.398438 343.351562 " fill-opacity="1" fill-rule="nonzero"/><path fill="#9a1a20" d="M 117.070312 416.925781 C 117.070312 416.925781 116.878906 416.910156 116.660156 416.839844 C 125.234375 414.859375 145.253906 412.28125 176.382812 409.140625 C 177.722656 409.007812 178.667969 408.914062 178.96875 408.878906 C 179.550781 408.234375 180.65625 403.882812 181.625 399.121094 C 182.066406 399.039062 182.304688 398.992188 182.304688 398.992188 L 182.933594 397.960938 C 182.679688 399.234375 182.332031 400.945312 181.945312 402.660156 C 180.332031 409.757812 179.683594 409.847656 179.203125 409.917969 C 179.050781 409.9375 178.265625 410.019531 176.488281 410.199219 C 140.273438 413.847656 124 416.261719 117.089844 417.828125 L 117.070312 416.925781 " fill-opacity="1" fill-rule="nonzero"/><path fill="#9a1a20" d="M 369.441406 443.71875 C 377.042969 432.640625 379.164062 413.398438 379.386719 411.136719 L 372.488281 399.128906 L 373.417969 397.917969 L 380.835938 410.816406 L 380.816406 411.042969 C 380.734375 411.949219 378.933594 431.648438 371.136719 443.71875 L 369.441406 443.71875 " fill-opacity="1" fill-rule="nonzero"/><path fill="#f14c56" d="M 355.597656 414.382812 C 355.597656 415.609375 356.59375 416.597656 357.816406 416.597656 L 372.921875 416.597656 C 374.140625 416.597656 375.136719 415.609375 375.136719 414.382812 C 375.136719 413.160156 374.140625 412.167969 372.921875 412.167969 L 357.816406 412.167969 C 356.59375 412.167969 355.597656 413.160156 355.597656 414.382812 " fill-opacity="1" fill-rule="nonzero"/><path fill="#b81d24" d="M 375.132812 414.484375 C 375.078125 415.660156 374.109375 416.597656 372.921875 416.597656 L 357.816406 416.597656 C 356.628906 416.597656 355.660156 415.660156 355.605469 414.484375 L 375.132812 414.484375 " fill-opacity="1" fill-rule="nonzero"/><path fill="#f14c56" d="M 259.75 412.558594 C 259.75 413.78125 260.742188 414.777344 261.964844 414.777344 L 277.070312 414.777344 C 278.296875 414.777344 279.289062 413.78125 279.289062 412.558594 C 279.289062 411.332031 278.296875 410.34375 277.070312 410.34375 L 261.964844 410.34375 C 260.742188 410.34375 259.75 411.332031 259.75 412.558594 " fill-opacity="1" fill-rule="nonzero"/><path fill="#b81d24" d="M 279.28125 412.664062 C 279.230469 413.835938 278.261719 414.777344 277.070312 414.777344 L 261.964844 414.777344 C 260.773438 414.777344 259.808594 413.835938 259.753906 412.664062 L 279.28125 412.664062 " fill-opacity="1" fill-rule="nonzero"/><path fill="#5ca4df" d="M 595.746094 371.449219 C 595.746094 371.449219 606.027344 373.789062 610.820312 378.824219 C 615.609375 383.863281 644.90625 437.234375 644.90625 437.234375 L 629.515625 436.417969 L 595.746094 371.449219 " fill-opacity="1" fill-rule="nonzero"/><path fill="#b8d3ed" d="M 298.675781 448.765625 C 298.675781 450.121094 299.777344 451.214844 301.128906 451.214844 C 302.480469 451.214844 303.578125 450.121094 303.578125 448.765625 L 303.578125 443.945312 C 303.578125 442.59375 302.480469 441.496094 301.128906 441.496094 C 299.777344 441.496094 298.675781 442.59375 298.675781 443.945312 L 298.675781 448.765625 " fill-opacity="1" fill-rule="nonzero"/><path fill="#ef3240" d="M 665.210938 493.675781 C 666.601562 500.699219 672.34375 505.492188 678.03125 504.367188 C 683.710938 503.242188 687.195312 496.628906 685.800781 489.601562 C 684.410156 482.570312 678.675781 477.777344 672.984375 478.90625 C 667.300781 480.03125 663.820312 486.640625 665.210938 493.675781 " fill-opacity="1" fill-rule="nonzero"/><path fill="#b8d3ed" d="M 669.144531 502.9375 C 669.714844 505.828125 672.519531 507.703125 675.414062 507.136719 C 678.292969 506.5625 680.175781 503.753906 679.609375 500.871094 L 675.304688 479.148438 C 674.726562 476.257812 671.925781 474.386719 669.035156 474.953125 C 666.152344 475.527344 664.269531 478.328125 664.84375 481.21875 L 669.144531 502.9375 " fill-opacity="1" fill-rule="nonzero"/><path fill="#b8d3ed" d="M 635.96875 460.449219 C 635.96875 465.886719 639.855469 470.296875 644.648438 470.296875 L 665.777344 470.296875 C 670.574219 470.296875 674.460938 465.886719 674.460938 460.449219 C 674.460938 455.011719 670.574219 450.609375 665.777344 450.609375 L 644.648438 450.609375 C 639.855469 450.609375 635.96875 455.011719 635.96875 460.449219 " fill-opacity="1" fill-rule="nonzero"/><path fill="#f59572" d="M 458.28125 416.003906 C 458.28125 416.003906 460.25 412.523438 459.816406 404.917969 C 459.78125 404.195312 461.671875 402.6875 461.671875 402.6875 L 466.394531 398.140625 L 467.957031 410.1875 L 467.703125 413.332031 C 467.703125 413.332031 460.375 420.609375 458.28125 416.003906 " fill-opacity="1" fill-rule="nonzero"/><path fill="#c78651" d="M 459.605469 411.175781 C 459.839844 409.53125 459.960938 407.457031 459.816406 404.917969 C 459.816406 404.910156 459.816406 404.898438 459.816406 404.890625 C 459.816406 404.898438 459.816406 404.910156 459.816406 404.917969 C 459.960938 407.453125 459.839844 409.53125 459.613281 411.171875 C 459.613281 411.171875 459.609375 411.171875 459.605469 411.175781 " fill-opacity="1" fill-rule="nonzero"/><path fill="#e78361" d="M 459.613281 411.171875 C 459.839844 409.53125 459.960938 407.453125 459.816406 404.917969 C 459.816406 404.910156 459.816406 404.898438 459.816406 404.890625 C 459.820312 404.15625 461.671875 402.6875 461.671875 402.6875 L 466.394531 398.140625 L 466.980469 402.671875 C 466.164062 404.949219 463.855469 410.179688 459.613281 411.171875 " fill-opacity="1" fill-rule="nonzero"/><path fill="#8dcce0" d="M 479.34375 453.039062 L 457.375 453.039062 C 455.667969 447.90625 453.257812 442.453125 453.347656 437.066406 C 453.347656 437.066406 450.425781 432.164062 456.632812 419.464844 C 457.429688 417.847656 457.8125 415.179688 457.8125 415.179688 C 458.269531 414.34375 459.230469 414.792969 459.230469 414.792969 C 463.847656 414.195312 467.652344 407.835938 467.652344 407.835938 C 478.824219 416.054688 480.863281 423.128906 478.503906 441.339844 C 477.992188 445.300781 478.457031 449.339844 479.34375 453.039062 " fill-opacity="1" fill-rule="nonzero"/><path fill="#14191e" d="M 495.648438 386.769531 C 495.648438 386.769531 486.824219 387.753906 484.007812 392.628906 C 481.183594 397.492188 479.769531 406.761719 481.742188 409.605469 C 481.742188 409.605469 475.589844 425.332031 477.171875 432.304688 C 478.757812 439.277344 491.808594 435.28125 491.808594 435.28125 L 495.648438 386.769531 " fill-opacity="1" fill-rule="nonzero"/><path fill="#98d4e3" d="M 472.714844 432.304688 L 463.285156 432.304688 L 470.222656 423.367188 C 470.222656 423.367188 472.507812 425.304688 472.714844 432.304688 " fill-opacity="1" fill-rule="nonzero"/><path fill="#8dcce0" d="M 451.183594 437.234375 C 460.066406 434.035156 470.9375 424.878906 470.710938 420.515625 C 470.382812 414.296875 465.386719 412.546875 460.175781 415.402344 C 455.691406 417.863281 447.425781 426.753906 443.496094 431.144531 L 451.183594 437.234375 " fill-opacity="1" fill-rule="nonzero"/><path fill="#f9ab89" d="M 453.386719 409.136719 C 457.476562 409.46875 462.796875 406.996094 462.796875 406.996094 C 464.359375 406.125 465.347656 399.507812 465.347656 399.507812 C 467.703125 395.757812 471.421875 398.457031 471.425781 391.660156 C 471.429688 382.835938 457.378906 380.789062 452.613281 386.46875 C 451.179688 388.167969 450.792969 392.175781 450.792969 396.066406 C 450.605469 396.570312 450.179688 396.855469 448.71875 399.019531 C 448.71875 399.019531 448.132812 399.644531 448.835938 400.253906 C 449.382812 400.722656 450.210938 400.917969 450.210938 400.917969 C 450.792969 401.457031 452.613281 409.074219 453.386719 409.136719 " fill-opacity="1" fill-rule="nonzero"/><path fill="#7c4121" d="M 465.042969 393.660156 C 465.042969 393.660156 463.566406 395.335938 462.65625 395.140625 C 461.746094 394.949219 461.910156 393.03125 461.332031 392.171875 C 460.75 391.308594 457.089844 389.652344 457.3125 388.410156 C 457.3125 388.410156 451.800781 390.976562 448.582031 390.402344 C 448.582031 390.402344 450.074219 386.628906 451.816406 385.285156 C 453.550781 383.945312 466.394531 387.667969 466.394531 387.667969 L 471.425781 392.875 C 471.425781 392.875 471.925781 396.378906 467.957031 400.042969 C 467.957031 400.042969 466.945312 402.386719 466.996094 402.800781 C 466.996094 402.800781 464.859375 396.007812 465.042969 393.660156 " fill-opacity="1" fill-rule="nonzero"/><path fill="#7c4121" d="M 452.601562 391.539062 C 452.601562 391.539062 451.953125 391.625 452.28125 392.066406 C 452.609375 392.5 454.601562 391.597656 456.148438 392.875 C 456.148438 392.875 454.921875 391.085938 452.601562 391.539062 " fill-opacity="1" fill-rule="nonzero"/><path fill="#161a20" d="M 452.84375 394.277344 C 452.84375 394.277344 454.136719 395.058594 454.511719 395.261719 C 454.511719 395.261719 452.867188 396.203125 452.515625 396.378906 C 452.515625 396.378906 452.496094 396.246094 452.648438 396.070312 C 452.648438 396.070312 452.648438 395.28125 452.910156 394.734375 C 452.910156 394.734375 452.167969 394.164062 452.191406 393.902344 L 452.84375 394.277344 " fill-opacity="1" fill-rule="nonzero"/><path fill="#f9ab89" d="M 463.582031 395.476562 C 463.582031 395.476562 465.300781 391.972656 466.980469 392.738281 C 469.476562 393.859375 467.332031 401.792969 464.800781 399.691406 C 462.269531 397.578125 463.582031 395.476562 463.582031 395.476562 " fill-opacity="1" fill-rule="nonzero"/><path fill="#ee8b67" d="M 467.003906 393.765625 C 467.003906 393.765625 468.113281 394.839844 466.890625 396.929688 C 466.890625 396.929688 466.511719 397.703125 466.394531 398.140625 C 466.277344 398.578125 466.03125 398.988281 465.589844 399.019531 C 465.152344 399.058594 465.445312 397.980469 465.667969 397.738281 C 465.886719 397.492188 465.957031 397.113281 465.667969 397.023438 C 465.378906 396.9375 464.90625 396.746094 465.042969 396.15625 C 465.171875 395.5625 466.007812 393.238281 467.003906 393.765625 " fill-opacity="1" fill-rule="nonzero"/><path fill="#c87353" d="M 467.613281 394.929688 C 467.613281 394.925781 467.582031 394.59375 467.464844 394.257812 C 467.40625 394.085938 467.328125 393.910156 467.207031 393.769531 C 467.085938 393.625 466.917969 393.515625 466.703125 393.519531 C 466.542969 393.519531 466.371094 393.578125 466.1875 393.703125 C 465.738281 394.003906 465.425781 394.5 465.214844 395.003906 C 465.003906 395.511719 464.898438 396.027344 464.894531 396.390625 C 464.894531 396.492188 464.902344 396.578125 464.921875 396.660156 C 464.941406 396.738281 464.96875 396.808594 465.023438 396.867188 L 465.027344 396.875 C 465.164062 397.003906 465.351562 397.078125 465.492188 397.15625 C 465.558594 397.191406 465.617188 397.230469 465.652344 397.261719 L 465.691406 397.339844 C 465.691406 397.371094 465.667969 397.445312 465.558594 397.566406 C 465.3125 397.855469 465.171875 398.230469 465.171875 398.558594 C 465.171875 398.710938 465.199219 398.855469 465.28125 398.972656 C 465.367188 399.089844 465.515625 399.164062 465.679688 399.164062 C 465.769531 399.164062 465.867188 399.144531 465.972656 399.105469 C 466.042969 399.078125 466.085938 399 466.058594 398.929688 C 466.03125 398.851562 465.953125 398.8125 465.878906 398.839844 C 465.796875 398.871094 465.726562 398.882812 465.679688 398.882812 C 465.585938 398.878906 465.550781 398.851562 465.511719 398.804688 C 465.472656 398.753906 465.449219 398.671875 465.449219 398.558594 C 465.445312 398.320312 465.566406 397.980469 465.773438 397.753906 C 465.898438 397.609375 465.96875 397.476562 465.972656 397.339844 C 465.972656 397.226562 465.914062 397.132812 465.851562 397.066406 C 465.75 396.96875 465.625 396.90625 465.507812 396.847656 C 465.390625 396.789062 465.28125 396.726562 465.226562 396.671875 L 465.128906 396.769531 L 465.226562 396.671875 C 465.226562 396.675781 465.207031 396.648438 465.195312 396.597656 C 465.183594 396.546875 465.175781 396.476562 465.175781 396.390625 C 465.175781 396.078125 465.277344 395.582031 465.472656 395.109375 C 465.671875 394.640625 465.96875 394.1875 466.34375 393.9375 C 466.496094 393.835938 466.613281 393.800781 466.703125 393.800781 C 466.820312 393.800781 466.90625 393.851562 466.992188 393.953125 C 467.121094 394.101562 467.214844 394.355469 467.265625 394.570312 C 467.289062 394.679688 467.308594 394.777344 467.320312 394.84375 C 467.324219 394.878906 467.328125 394.910156 467.332031 394.929688 L 467.332031 394.957031 C 467.339844 395.03125 467.40625 395.085938 467.488281 395.085938 C 467.5625 395.078125 467.621094 395.007812 467.613281 394.929688 " fill-opacity="1" fill-rule="nonzero"/><path fill="#c87353" d="M 465.851562 394.449219 C 465.980469 394.382812 466.085938 394.355469 466.164062 394.355469 C 466.308594 394.355469 466.417969 394.429688 466.523438 394.582031 C 466.679688 394.808594 466.769531 395.1875 466.8125 395.5 C 466.835938 395.660156 466.851562 395.800781 466.855469 395.90625 C 466.863281 396.011719 466.863281 396.070312 466.863281 396.070312 C 466.867188 396.148438 466.929688 396.207031 467.007812 396.207031 C 467.085938 396.207031 467.148438 396.144531 467.144531 396.066406 C 467.144531 396.058594 467.140625 395.589844 467.027344 395.109375 C 466.96875 394.867188 466.890625 394.625 466.757812 394.425781 C 466.628906 394.230469 466.425781 394.074219 466.164062 394.074219 C 466.023438 394.074219 465.875 394.121094 465.714844 394.207031 C 465.648438 394.246094 465.625 394.328125 465.660156 394.394531 C 465.695312 394.464844 465.785156 394.488281 465.851562 394.449219 " fill-opacity="1" fill-rule="nonzero"/><path fill="#f9ab89" d="M 421.011719 453.039062 L 421.027344 453.011719 C 422.347656 450.910156 430.96875 452.746094 432.253906 453.039062 L 421.011719 453.039062 " fill-opacity="1" fill-rule="nonzero"/><path fill="#8dcce0" d="M 457.800781 414.675781 C 457.800781 414.675781 457.050781 416.507812 457.402344 417.214844 C 457.402344 417.214844 464.058594 416.921875 469.082031 409.167969 C 469.082031 409.167969 468.4375 406.703125 467.957031 406.601562 C 467.476562 406.496094 464.101562 412.316406 457.800781 414.675781 " fill-opacity="1" fill-rule="nonzero"/><path fill="#e47b54" d="M 451.035156 403.011719 C 452.144531 402.84375 453.480469 402.203125 453.492188 402.199219 C 453.601562 402.152344 453.730469 402.191406 453.777344 402.296875 C 453.835938 402.402344 453.789062 402.527344 453.683594 402.578125 C 453.621094 402.609375 452.328125 403.234375 451.164062 403.425781 C 451.125 403.28125 451.078125 403.140625 451.035156 403.011719 " fill-opacity="1" fill-rule="nonzero"/><path fill="#14191e" d="M 415.140625 432.308594 C 415.140625 432.972656 415.898438 433.515625 416.832031 433.515625 C 417.765625 433.515625 418.527344 432.972656 418.527344 432.308594 L 418.527344 408.050781 C 418.527344 407.382812 417.765625 406.84375 416.832031 406.84375 C 415.898438 406.84375 415.140625 407.382812 415.140625 408.050781 L 415.140625 432.308594 " fill-opacity="1" fill-rule="nonzero"/><path fill="#f9ab89" d="M 429.042969 430.4375 C 429.042969 430.4375 423.027344 423.761719 421.617188 421.4375 C 421.617188 421.4375 420.226562 417.140625 419.941406 416.820312 C 419.550781 416.390625 418.527344 416.222656 418.527344 417.316406 C 418.527344 417.667969 413.9375 417.875 413.796875 418.441406 C 413.65625 419.003906 413.445312 419.730469 414.296875 420.175781 C 414.296875 420.175781 413.90625 420.910156 414.296875 421.511719 C 414.296875 421.511719 414.011719 422.25 414.578125 422.78125 C 414.578125 422.78125 414.503906 423.769531 414.824219 424.085938 C 415.140625 424.40625 418.210938 425.953125 418.742188 426.027344 C 419.269531 426.09375 420.113281 426.09375 420.324219 425.8125 L 423.828125 430.789062 L 429.042969 430.4375 " fill-opacity="1" fill-rule="nonzero"/><path fill="#14191e" d="M 406.75 401.726562 L 414.296875 438.628906 L 393.203125 431.535156 L 393.972656 416.679688 L 406.75 401.726562 " fill-opacity="1" fill-rule="nonzero"/><path fill="#5ca4df" d="M 596.046875 371.378906 L 613.765625 434.195312 L 588.910156 450.609375 L 502.425781 436.734375 L 512.613281 367.964844 L 596.046875 371.378906 " fill-opacity="1" fill-rule="nonzero"/><path fill="#86d2f4" d="M 589.34375 372.757812 L 514.238281 438.628906 L 502.425781 436.734375 L 503.03125 432.65625 L 572.523438 371.703125 L 589.34375 372.757812 " fill-opacity="1" fill-rule="nonzero"/><path fill="#86d2f4" d="M 566.515625 371.332031 L 503.996094 426.167969 L 505.667969 414.855469 L 556.042969 370.671875 L 566.515625 371.332031 " fill-opacity="1" fill-rule="nonzero"/><path fill="#86d2f4" d="M 522.046875 439.882812 L 591.378906 372.265625 L 600.640625 372.84375 L 601.199219 373.492188 L 531.535156 441.40625 L 522.046875 439.882812 " fill-opacity="1" fill-rule="nonzero"/><path fill="#23405f" d="M 511.304688 430.34375 L 517.574219 374.535156 C 517.574219 374.535156 528.054688 373.761719 541.875 374.25 L 554.347656 375.019531 C 560.839844 375.605469 567.558594 376.53125 573.96875 377.953125 C 582.761719 379.910156 601.875 420.664062 601.875 420.664062 L 594.472656 430.34375 Z M 498.28125 441.390625 L 574.113281 454.511719 L 616.871094 443.226562 L 616.871094 413.601562 L 581.140625 366.917969 L 540.265625 364.695312 L 540.894531 368.433594 L 514.847656 366.917969 L 508.085938 370.089844 L 499.632812 422.394531 L 498.28125 441.390625 " fill-opacity="1" fill-rule="nonzero"/><path fill="#23405f" d="M 494.203125 376.292969 L 483.589844 429.492188 L 405.691406 429.570312 L 399.546875 420.25 C 399.546875 420.25 421.011719 381.410156 430.882812 379.550781 C 438.078125 378.191406 445.628906 377.316406 452.910156 376.753906 L 466.917969 376.019531 C 482.4375 375.554688 494.203125 376.292969 494.203125 376.292969 Z M 502.847656 438.429688 L 502.847656 371.257812 L 497.269531 369.03125 L 468.023438 370.476562 L 468.515625 367.960938 L 452.6875 367.960938 L 452.6875 371.769531 L 420.359375 371.769531 L 393.203125 401.882812 L 393.203125 438.429688 L 502.847656 438.429688 " fill-opacity="1" fill-rule="nonzero"/><path fill="#14191e" d="M 309.382812 528.523438 L 626.140625 528.523438 L 626.140625 458.5625 L 309.382812 458.5625 L 309.382812 528.523438 " fill-opacity="1" fill-rule="nonzero"/><path fill="#2a353f" d="M 529.101562 528.523438 C 529.101562 550.492188 546.914062 568.308594 568.890625 568.308594 C 590.875 568.308594 608.6875 550.492188 608.6875 528.523438 C 608.6875 506.550781 590.875 488.738281 568.890625 488.738281 C 546.914062 488.738281 529.101562 506.550781 529.101562 528.523438 " fill-opacity="1" fill-rule="nonzero"/><path fill="#1b2229" d="M 568.890625 558.90625 C 589.273438 558.90625 606.082031 543.582031 608.410156 523.824219 C 608.585938 525.367188 608.6875 526.929688 608.6875 528.523438 C 608.6875 550.492188 590.875 568.308594 568.890625 568.308594 C 546.914062 568.308594 529.101562 550.492188 529.101562 528.523438 C 529.101562 526.929688 529.195312 525.367188 529.371094 523.824219 C 531.699219 543.582031 548.507812 558.90625 568.890625 558.90625 " fill-opacity="1" fill-rule="nonzero"/><path fill="#bdc8d3" d="M 544.421875 528.523438 C 544.421875 542.035156 555.375 552.984375 568.890625 552.984375 C 582.402344 552.984375 593.355469 542.035156 593.355469 528.523438 C 593.355469 515.015625 582.402344 504.066406 568.890625 504.066406 C 555.375 504.066406 544.421875 515.015625 544.421875 528.523438 " fill-opacity="1" fill-rule="nonzero"/><path fill="#92a2b4" d="M 548.867188 528.523438 C 548.867188 539.582031 557.839844 548.539062 568.890625 548.539062 C 579.945312 548.539062 588.910156 539.582031 588.910156 528.523438 C 588.910156 517.46875 579.945312 508.507812 568.890625 508.507812 C 557.839844 508.507812 548.867188 517.46875 548.867188 528.523438 " fill-opacity="1" fill-rule="nonzero"/><path fill="#6c8599" d="M 588.886719 527.527344 C 588.90625 527.855469 588.910156 528.1875 588.910156 528.523438 C 588.910156 539.582031 579.945312 548.539062 568.890625 548.539062 C 557.839844 548.539062 548.867188 539.582031 548.867188 528.523438 C 548.867188 528.1875 548.878906 527.855469 548.894531 527.527344 L 588.886719 527.527344 " fill-opacity="1" fill-rule="nonzero"/><path fill="#2a353f" d="M 326.316406 528.523438 C 326.316406 550.492188 344.132812 568.308594 366.113281 568.308594 C 388.089844 568.308594 405.90625 550.492188 405.90625 528.523438 C 405.90625 506.554688 388.089844 488.738281 366.113281 488.738281 C 344.132812 488.738281 326.316406 506.554688 326.316406 528.523438 " fill-opacity="1" fill-rule="nonzero"/><path fill="#1b2229" d="M 366.113281 558.90625 C 386.496094 558.90625 403.304688 543.582031 405.628906 523.824219 C 405.808594 525.367188 405.90625 526.929688 405.90625 528.523438 C 405.90625 550.492188 388.089844 568.308594 366.113281 568.308594 C 344.132812 568.308594 326.316406 550.492188 326.316406 528.523438 C 326.316406 526.929688 326.414062 525.367188 326.59375 523.824219 C 328.925781 543.582031 345.722656 558.90625 366.113281 558.90625 " fill-opacity="1" fill-rule="nonzero"/><path fill="#bdc8d3" d="M 341.644531 528.523438 C 341.644531 542.035156 352.601562 552.984375 366.113281 552.984375 C 379.625 552.984375 390.578125 542.035156 390.578125 528.523438 C 390.578125 515.015625 379.625 504.066406 366.113281 504.066406 C 352.601562 504.066406 341.644531 515.015625 341.644531 528.523438 " fill-opacity="1" fill-rule="nonzero"/><path fill="#92a2b4" d="M 346.089844 528.523438 C 346.089844 539.582031 355.054688 548.539062 366.113281 548.539062 C 377.167969 548.539062 386.132812 539.582031 386.132812 528.523438 C 386.132812 517.46875 377.167969 508.507812 366.113281 508.507812 C 355.054688 508.507812 346.089844 517.46875 346.089844 528.523438 " fill-opacity="1" fill-rule="nonzero"/><path fill="#6c8599" d="M 386.109375 527.527344 C 386.121094 527.855469 386.132812 528.1875 386.132812 528.523438 C 386.132812 539.582031 377.167969 548.539062 366.113281 548.539062 C 355.054688 548.539062 346.089844 539.582031 346.089844 528.523438 C 346.089844 528.1875 346.097656 527.855469 346.117188 527.527344 L 386.109375 527.527344 " fill-opacity="1" fill-rule="nonzero"/><path fill="#f79336" d="M 393.292969 421.511719 C 393.292969 421.511719 417.152344 379.886719 426.953125 377.710938 C 455.523438 371.359375 500.609375 370.089844 500.609375 370.089844 L 486.640625 432.304688 L 401.554688 432.304688 L 393.292969 421.511719 M 506.109375 433.570312 L 513.09375 371.359375 C 513.09375 371.359375 547.382812 368.824219 575.964844 375.167969 C 585.757812 377.347656 607.074219 422.78125 607.074219 422.78125 L 598.816406 433.570312 L 506.109375 433.570312 M 306.722656 531.742188 L 306.722656 484.148438 L 365.820312 484.148438 L 365.820312 484.503906 L 397.414062 484.503906 C 401.558594 484.503906 405.078125 486.964844 406.292969 490.355469 L 416.96875 490.355469 L 416.96875 533.601562 L 528.675781 533.601562 L 528.675781 492.972656 C 528.675781 490.742188 529.632812 488.71875 531.1875 487.207031 L 531.1875 481.003906 L 533.507812 481.003906 L 533.507812 478.027344 L 604.023438 478.027344 L 604.023438 481.003906 L 605.347656 481.003906 L 605.347656 485.683594 C 608.097656 487.15625 609.953125 489.867188 609.953125 492.972656 L 609.953125 515.925781 L 634.234375 515.925781 L 634.234375 533.601562 L 679.507812 533.601562 C 679.507812 533.601562 671.285156 493.5625 664.632812 451.894531 C 662.953125 441.390625 649.878906 436.976562 649.878906 436.976562 L 634.933594 430.4375 C 620.113281 403.882812 604.539062 380.457031 602.101562 376.105469 C 597.527344 367.953125 584.617188 365.242188 584.617188 365.242188 C 468.621094 344.082031 416.488281 372.195312 416.488281 372.195312 L 380.082031 418.324219 L 372.464844 430.8125 C 372.464844 430.8125 303.457031 443.511719 296.683594 447.742188 C 295.035156 448.769531 294.046875 449.570312 293.480469 450.191406 L 293.480469 452.175781 C 293.808594 452.316406 294.144531 452.34375 294.144531 452.34375 L 294.992188 485.777344 L 293.480469 486.597656 L 293.480469 526.605469 C 297.457031 529.097656 302.269531 530.707031 306.722656 531.742188 " fill-opacity="1" fill-rule="nonzero"/><path fill="#e97c26" d="M 293.480469 496.507812 C 294.496094 491.042969 296.601562 486.027344 300.28125 481.988281 C 319.003906 461.46875 357.042969 455.515625 400.03125 460.449219 C 443.019531 465.390625 450.347656 516.066406 450.347656 516.066406 L 457.40625 533.601562 L 416.964844 533.601562 L 416.964844 490.355469 L 406.292969 490.355469 C 405.074219 486.964844 401.558594 484.503906 397.410156 484.503906 L 365.820312 484.503906 L 365.820312 484.148438 L 306.722656 484.148438 L 306.722656 531.742188 C 303.214844 530.925781 299.484375 529.757812 296.109375 528.074219 C 295.046875 524.125 294.101562 519.851562 293.480469 515.488281 L 293.480469 496.507812 " fill-opacity="1" fill-rule="nonzero"/><path fill="#e97c26" d="M 516.042969 466.773438 C 530.058594 451.925781 583.429688 444.226562 613.765625 458.5625 C 619.4375 461.246094 626.277344 469.578125 629.765625 473.472656 C 650.371094 496.542969 671.117188 520.917969 680.125 528.59375 C 679.804688 531.816406 679.507812 533.601562 679.507812 533.601562 L 634.234375 533.601562 L 634.234375 515.925781 L 609.953125 515.925781 L 609.953125 492.972656 C 609.953125 489.625 607.800781 486.738281 604.6875 485.363281 L 604.6875 477.695312 L 532.847656 477.695312 L 532.847656 485.925781 C 530.332031 487.441406 528.675781 490.03125 528.675781 492.972656 L 528.675781 533.601562 L 500.644531 533.601562 C 500.644531 533.601562 499.40625 484.394531 516.042969 466.773438 " fill-opacity="1" fill-rule="nonzero"/><path fill="#fcce45" d="M 296.683594 447.742188 C 303.457031 443.511719 372.460938 430.8125 372.460938 430.8125 L 380.082031 418.324219 L 400.03125 393.042969 C 392.230469 408.917969 374.921875 437.742188 374.292969 439.414062 C 374.292969 439.414062 303.457031 449.152344 299.507812 452.257812 C 295.554688 455.355469 294.992188 485.777344 294.992188 485.777344 L 294.144531 452.34375 C 294.144531 452.34375 289.910156 451.972656 296.683594 447.742188 " fill-opacity="1" fill-rule="nonzero"/><path fill="#fcce45" d="M 509.199219 439.273438 C 509.199219 439.273438 502.597656 440.988281 506.113281 433.570312 L 598.820312 433.570312 L 607.074219 422.78125 C 607.074219 422.78125 589.769531 385.886719 579.171875 377.003906 L 579.171875 377 L 588.367188 381.292969 C 588.367188 381.292969 620.117188 422.347656 620.117188 432.503906 L 608.6875 441.390625 L 509.199219 439.273438 " fill-opacity="1" fill-rule="nonzero"/><path fill="#fcce45" d="M 393.589844 421.890625 L 401.550781 432.304688 L 486.640625 432.304688 L 500.605469 370.089844 L 505.082031 370.089844 L 490.996094 439.277344 L 399.980469 439.277344 C 399.980469 439.277344 387.945312 430.964844 393.589844 421.890625 " fill-opacity="1" fill-rule="nonzero"/><path fill="#e97c26" d="M 417.46875 533.601562 L 528.675781 533.601562 L 528.675781 498.527344 L 417.46875 498.527344 Z M 417.46875 533.601562 " fill-opacity="1" fill-rule="nonzero"/><path fill="#cf621c" d="M 291.488281 498.527344 L 306.722656 498.527344 L 306.722656 531.742188 C 301.5 530.53125 295.777344 528.523438 291.488281 525.222656 L 291.488281 498.527344 " fill-opacity="1" fill-rule="nonzero"/><path fill="#b8d3ed" d="M 289.085938 518.066406 C 289.085938 520.1875 290.808594 521.90625 292.929688 521.90625 C 295.050781 521.90625 296.769531 520.1875 296.769531 518.066406 L 296.769531 458.804688 C 296.769531 456.679688 295.050781 454.964844 292.929688 454.964844 C 290.808594 454.964844 289.085938 456.679688 289.085938 458.804688 L 289.085938 518.066406 " fill-opacity="1" fill-rule="nonzero"/><g clip-path="url(#id8)"><path fill="#de7121" d="M 417.46875 533.601562 L 528.675781 533.601562 L 528.675781 512.070312 L 417.46875 512.070312 Z M 417.46875 533.601562 " fill-opacity="1" fill-rule="nonzero"/></g><path fill="#77959d" d="M 302.15625 530.492188 C 293.421875 527.707031 284.832031 522.425781 284.832031 512.441406 L 284.832031 512.070312 L 289.085938 512.070312 L 289.085938 518.066406 C 289.085938 519.675781 290.082031 521.058594 291.488281 521.628906 L 291.488281 525.222656 C 292.125 525.710938 292.789062 526.171875 293.480469 526.605469 C 294.324219 527.132812 295.203125 527.621094 296.109375 528.074219 C 297.066406 528.554688 298.054688 528.988281 299.054688 529.386719 C 300.078125 529.792969 301.117188 530.164062 302.15625 530.492188 " fill-opacity="1" fill-rule="nonzero"/><path fill="#a98067" d="M 296.109375 528.074219 C 295.203125 527.621094 294.324219 527.132812 293.480469 526.605469 C 294.324219 527.132812 295.203125 527.621094 296.109375 528.074219 " fill-opacity="1" fill-rule="nonzero"/><path fill="#a2755c" d="M 299.054688 529.386719 C 298.054688 528.988281 297.066406 528.554688 296.109375 528.074219 C 297.066406 528.546875 298.054688 528.984375 299.054688 529.386719 " fill-opacity="1" fill-rule="nonzero"/><path fill="#956651" d="M 306.722656 531.742188 C 305.226562 531.390625 303.691406 530.984375 302.15625 530.492188 C 301.117188 530.164062 300.078125 529.792969 299.054688 529.386719 C 298.054688 528.984375 297.066406 528.546875 296.109375 528.074219 C 295.203125 527.621094 294.324219 527.132812 293.480469 526.605469 C 292.789062 526.171875 292.125 525.710938 291.488281 525.222656 L 291.488281 521.628906 C 291.933594 521.808594 292.421875 521.90625 292.929688 521.90625 C 295.050781 521.90625 296.769531 520.1875 296.769531 518.066406 L 296.769531 512.070312 L 306.722656 512.070312 L 306.722656 531.742188 " fill-opacity="1" fill-rule="nonzero"/><path fill="#82a1c6" d="M 292.929688 521.90625 C 292.421875 521.90625 291.933594 521.808594 291.488281 521.628906 C 290.082031 521.058594 289.085938 519.675781 289.085938 518.066406 L 289.085938 512.070312 L 296.769531 512.070312 L 296.769531 518.066406 C 296.769531 520.1875 295.050781 521.90625 292.929688 521.90625 " fill-opacity="1" fill-rule="nonzero"/><path fill="#dc7321" d="M 495.648438 533.601562 L 495.648438 447.03125 L 510.433594 358.21875 C 511.007812 358.203125 511.582031 358.183594 512.15625 358.164062 L 497.347656 447.164062 L 497.347656 533.601562 L 495.648438 533.601562 " fill-opacity="1" fill-rule="nonzero"/><path fill="#dc7321" d="M 294.144531 452.34375 C 294.144531 452.34375 293.917969 452.320312 293.652344 452.238281 C 303.949219 449.863281 327.984375 446.761719 365.351562 443 C 366.960938 442.839844 368.09375 442.71875 368.460938 442.683594 C 369.15625 441.902344 370.484375 436.683594 371.652344 430.960938 C 372.175781 430.863281 372.460938 430.8125 372.460938 430.8125 L 373.21875 429.570312 C 372.917969 431.101562 372.496094 433.15625 372.027344 435.210938 C 370.101562 443.730469 369.3125 443.839844 368.738281 443.925781 C 368.5625 443.949219 367.609375 444.046875 365.480469 444.257812 C 322.007812 448.644531 302.460938 451.542969 294.171875 453.417969 L 294.144531 452.34375 " fill-opacity="1" fill-rule="nonzero"/><path fill="#dc7321" d="M 597.144531 484.503906 C 606.269531 471.207031 608.816406 448.105469 609.085938 445.386719 L 600.804688 430.972656 L 601.921875 429.515625 L 610.824219 445.011719 L 610.796875 445.269531 C 610.707031 446.367188 608.542969 470.015625 599.183594 484.503906 L 597.144531 484.503906 " fill-opacity="1" fill-rule="nonzero"/><path fill="#fcce45" d="M 581.628906 447.21875 C 581.628906 448.691406 582.820312 449.878906 584.285156 449.878906 L 602.421875 449.878906 C 603.894531 449.878906 605.082031 448.691406 605.082031 447.21875 C 605.082031 445.75 603.894531 444.558594 602.421875 444.558594 L 584.285156 444.558594 C 582.820312 444.558594 581.628906 445.75 581.628906 447.21875 " fill-opacity="1" fill-rule="nonzero"/><path fill="#e97c26" d="M 605.082031 447.335938 C 605.015625 448.753906 603.855469 449.878906 602.425781 449.878906 L 584.289062 449.878906 C 582.859375 449.878906 581.699219 448.753906 581.636719 447.335938 L 605.082031 447.335938 " fill-opacity="1" fill-rule="nonzero"/><path fill="#fcce45" d="M 465.445312 447.097656 C 465.445312 448.570312 466.632812 449.757812 468.105469 449.757812 L 486.238281 449.757812 C 487.710938 449.757812 488.902344 448.570312 488.902344 447.097656 C 488.902344 445.625 487.710938 444.4375 486.238281 444.4375 L 468.105469 444.4375 C 466.632812 444.4375 465.445312 445.625 465.445312 447.097656 " fill-opacity="1" fill-rule="nonzero"/><path fill="#e97c26" d="M 488.894531 447.21875 C 488.832031 448.632812 487.671875 449.757812 486.238281 449.757812 L 468.105469 449.757812 C 466.671875 449.757812 465.515625 448.632812 465.449219 447.21875 L 488.894531 447.21875 " fill-opacity="1" fill-rule="nonzero"/><path fill="#f79336" d="M 525.894531 470.851562 C 525.894531 470.851562 574.226562 438.199219 615.285156 472.730469 L 679.507812 533.601562 L 679.507812 538.03125 L 613.765625 538.03125 C 613.765625 538.03125 611.589844 535.5 608.820312 527.867188 L 608.820312 520.128906 C 608.820312 498.089844 590.945312 480.21875 568.890625 480.21875 C 554.867188 480.21875 542.542969 487.441406 535.421875 498.371094 C 535.371094 498.425781 535.308594 498.472656 535.253906 498.527344 L 535.222656 498.679688 C 531.265625 504.878906 528.964844 512.234375 528.964844 520.128906 L 528.964844 532.175781 C 528.125 534.695312 524.644531 538.824219 510.679688 538.03125 L 503.472656 538.03125 C 503.472656 538.03125 500.628906 487.625 525.894531 470.851562 " fill-opacity="1" fill-rule="nonzero"/><path fill="#b8d3ed" d="M 653.847656 512.832031 L 686.046875 512.832031 C 691.574219 512.832031 696.058594 517.308594 696.058594 522.832031 C 696.058594 528.363281 691.574219 532.847656 686.046875 532.847656 L 653.847656 532.847656 L 653.847656 512.832031 " fill-opacity="1" fill-rule="nonzero"/><path fill="#8bb2d6" d="M 695.851562 524.863281 C 694.917969 529.417969 690.882812 532.847656 686.050781 532.847656 L 653.847656 532.847656 L 653.847656 524.863281 L 695.851562 524.863281 " fill-opacity="1" fill-rule="nonzero"/><path fill="#f79336" d="M 308.234375 532.125 C 317.042969 533.488281 322.578125 521 327.578125 508.507812 C 332.546875 496.101562 339.121094 493.542969 339.121094 493.542969 C 349.925781 485.777344 356.242188 486.109375 364.835938 485.640625 C 396.773438 483.898438 409.097656 506.75 408.527344 520.890625 C 407.890625 536.527344 419.460938 538.03125 419.460938 538.03125 L 441.757812 538.03125 C 441.207031 477.234375 419.46875 463.84375 369.625 462.800781 C 337.351562 462.125 314.667969 475.042969 307.011719 484.148438 C 307.011719 484.148438 292.816406 503.179688 299.105469 526.015625 L 308.234375 532.125 " fill-opacity="1" fill-rule="nonzero"/><path fill="#e97c26" d="M 528.671875 488.738281 C 539.132812 475.210938 576.839844 461.917969 600.445312 478.746094 C 619.738281 492.5 634.878906 526.191406 639.761719 538.03125 L 613.761719 538.03125 C 613.761719 538.03125 608.683594 538.03125 608.816406 527.867188 L 608.816406 520.128906 C 608.816406 498.089844 590.941406 480.21875 568.890625 480.21875 C 554.863281 480.21875 542.542969 487.445312 535.421875 498.375 C 535.367188 498.425781 535.308594 498.472656 535.25 498.53125 L 535.21875 498.679688 C 531.261719 504.878906 528.960938 512.234375 528.960938 520.128906 L 528.960938 532.175781 C 528.261719 534.261719 525.753906 537.445312 517 538.035156 C 518.230469 523.554688 521.375 498.179688 528.671875 488.738281 " fill-opacity="1" fill-rule="nonzero"/><path fill="#e97c26" d="M 307.011719 532.035156 L 307.011719 520.242188 C 320.757812 475.824219 369.625 478.746094 369.625 478.746094 C 425.800781 479.597656 428.957031 520.363281 427.6875 538.03125 L 419.460938 538.03125 C 419.460938 538.03125 407.890625 536.527344 408.527344 520.890625 C 409.097656 506.75 396.773438 483.898438 364.835938 485.640625 C 356.242188 486.109375 349.925781 485.777344 339.121094 493.542969 C 339.121094 493.542969 332.546875 496.101562 327.578125 508.507812 C 322.578125 521 315.816406 533.398438 307.011719 532.035156 " fill-opacity="1" fill-rule="nonzero"/><path fill="#b8d3ed" d="M 316.65625 512.832031 L 284.457031 512.832031 C 278.925781 512.832031 274.445312 517.308594 274.445312 522.832031 C 274.445312 528.363281 278.925781 532.847656 284.457031 532.847656 L 316.65625 532.847656 L 316.65625 512.832031 " fill-opacity="1" fill-rule="nonzero"/><path fill="#8bb2d6" d="M 274.652344 524.859375 C 275.585938 529.417969 279.621094 532.847656 284.457031 532.847656 L 316.65625 532.847656 L 316.65625 524.859375 L 274.652344 524.859375 " fill-opacity="1" fill-rule="nonzero"/><path fill="#ee2443" d="M 471.28125 393.660156 C 471.28125 393.660156 463.832031 391.03125 457.148438 389.339844 C 454.925781 388.769531 452.785156 388.308594 451.035156 388.082031 C 451.035156 388.082031 450.574219 380.304688 456.148438 379.972656 C 459.921875 379.75 463.246094 383.289062 467.003906 383.753906 C 470.339844 384.167969 476.925781 388.894531 471.28125 393.660156 " fill-opacity="1" fill-rule="nonzero"/><path fill="#fbc4d4" d="M 456.148438 389.082031 L 451.242188 385.285156 C 451.242188 385.285156 443.203125 386.292969 443.496094 387.191406 C 443.496094 387.191406 448.804688 388.933594 456.148438 389.082031 " fill-opacity="1" fill-rule="nonzero"/></svg>