<svg width="408" height="94" viewBox="0 0 408 94" fill="none" xmlns="http://www.w3.org/2000/svg">
<g filter="url(#filter0_b_15_114)">
<path d="M1 46C1 21.1472 21.1472 1 46 1H362C386.853 1 407 21.1472 407 46V48C407 72.8528 386.853 93 362 93H46C21.1472 93 1 72.8528 1 48V46Z" fill="#4EB4EE" fill-opacity="0.91"/>
<path d="M1 46C1 21.1472 21.1472 1 46 1H362C386.853 1 407 21.1472 407 46V48C407 72.8528 386.853 93 362 93H46C21.1472 93 1 72.8528 1 48V46Z" stroke="#2862BA" stroke-opacity="0.54"/>
</g>
<defs>
<filter id="filter0_b_15_114" x="-3.5" y="-3.5" width="415" height="101" filterUnits="userSpaceOnUse" color-interpolation-filters="sRGB">
<feFlood flood-opacity="0" result="BackgroundImageFix"/>
<feGaussianBlur in="BackgroundImage" stdDeviation="2"/>
<feComposite in2="SourceAlpha" operator="in" result="effect1_backgroundBlur_15_114"/>
<feBlend mode="normal" in="SourceGraphic" in2="effect1_backgroundBlur_15_114" result="shape"/>
</filter>
</defs>
</svg>
